<svg xmlns="http://www.w3.org/2000/svg" width="39" height="72" viewBox="0 0 39 72" fill="none">
  <path d="M9.34478 42.7145L17.3505 24.2755H20.0363V29.4921L14.3548 42.7145H18.5901V40.3386C18.5901 39.7601 19.5542 39.7188 20.0363 39.7704V47.0531C18.7141 47.0531 18.5212 46.6054 18.5901 46.3816V44.3156H13.5801L1.18409 72H0.719238L3.86988 62.4447C3.86988 62.4447 1.08079 61.3601 2.01049 59.0359C2.94018 56.7116 8.51838 44.3156 8.51838 44.3156H2.01049V42.7145H9.34478Z" fill="#FF9900"/>
  <path d="M30.2113 42.7145L22.2056 24.2755H19.5198V29.4921L25.2013 42.7145H20.966V40.3386C20.966 39.7601 20.0019 39.7188 19.5198 39.7704V47.0531C20.8421 47.0531 21.0349 46.6054 20.966 46.3816V44.3156H25.9761L38.372 72H38.8369L35.6862 62.4447C35.6862 62.4447 38.4753 61.3601 37.5456 59.0359C36.6159 56.7116 31.0377 44.3156 31.0377 44.3156H37.5456V42.7145H30.2113Z" fill="#FF9900"/>
  <path fill-rule="evenodd" clip-rule="evenodd" d="M19.83 21.5897C22.8537 21.5897 25.3049 19.1385 25.3049 16.1148C25.3049 13.0911 22.8537 10.6399 19.83 10.6399C16.8063 10.6399 14.3551 13.0911 14.3551 16.1148C14.3551 19.1385 16.8063 21.5897 19.83 21.5897ZM19.83 24.5854C24.5081 24.5854 28.3006 20.793 28.3006 16.1148C28.3006 11.4366 24.5081 7.64419 19.83 7.64419C15.1518 7.64419 11.3594 11.4366 11.3594 16.1148C11.3594 20.793 15.1518 24.5854 19.83 24.5854Z" fill="white"/>
  <path d="M18.2805 0H21.3795V8.16069H18.2805V0Z" fill="white"/>
</svg>
