<svg xmlns="http://www.w3.org/2000/svg" width="174" height="43" viewBox="0 0 174 43" fill="none">
  <path d="M19.5385 20.2905C18.4378 20.9224 17.1026 21.4218 15.533 21.7887C13.9634 22.1556 12.3326 22.3391 10.6407 22.3391C8.35765 22.3391 6.41093 22.0639 4.80055 21.5135C3.21056 20.9632 2.00787 20.1987 1.19249 19.2203C0.397498 18.2418 0 17.1105 0 15.8263C0 14.7051 0.305768 13.7165 0.917303 12.8603C1.52884 12.0042 2.3748 11.3417 3.45517 10.8728C2.61941 10.4447 1.9773 9.85359 1.52884 9.09937C1.10076 8.32476 0.886726 7.4788 0.886726 6.5615C0.886726 5.3792 1.25365 4.29882 1.98749 3.32036C2.74172 2.3419 3.88325 1.5571 5.41209 0.965949C6.94092 0.374799 8.82649 0.0792236 11.0688 0.0792236C12.4753 0.0792236 13.8615 0.211723 15.2272 0.476722C16.593 0.741721 17.7957 1.09845 18.8353 1.54691L17.1841 6.07227C15.2884 5.2365 13.3315 4.81862 11.3134 4.81862C9.8661 4.81862 8.78572 5.01227 8.07226 5.39958C7.35881 5.7665 7.00208 6.28631 7.00208 6.95899C7.00208 8.18207 7.8888 8.7936 9.66226 8.7936H15.7165V13.4107H9.26476C8.22515 13.4107 7.44035 13.584 6.91035 13.9305C6.38035 14.2566 6.11535 14.7459 6.11535 15.3982C6.11535 16.0913 6.50266 16.6314 7.27727 17.0187C8.05188 17.4061 9.25457 17.5997 10.8853 17.5997C12.0472 17.5997 13.2397 17.4468 14.4628 17.1411C15.7063 16.8149 16.7866 16.3766 17.7039 15.8263L19.5385 20.2905Z" fill="white"/>
  <path d="M35.1224 13.2272C37.0182 13.8591 37.9661 15.1638 37.9661 17.1411C37.9661 18.6291 37.3851 19.8012 36.2232 20.6574C35.0613 21.4931 33.349 21.911 31.0863 21.911H21.7604V5.33843H30.6582C32.819 5.33843 34.4905 5.71554 35.6728 6.46977C36.8755 7.22399 37.4768 8.28399 37.4768 9.64975C37.4768 10.4447 37.273 11.148 36.8653 11.7595C36.4576 12.3711 35.8767 12.8603 35.1224 13.2272ZM26.9584 12.0042H30.1384C31.4838 12.0042 32.1565 11.5047 32.1565 10.5059C32.1565 9.54783 31.4838 9.06879 30.1384 9.06879H26.9584V12.0042ZM30.5665 18.1501C31.973 18.1501 32.6763 17.6405 32.6763 16.6213C32.6763 15.602 31.9934 15.0924 30.6276 15.0924H26.9584V18.1501H30.5665Z" fill="white"/>
  <path d="M48.6672 16.0097H46.7103V21.911H40.9007V5.33843H46.7103V11.4538H48.7895L52.8562 5.33843H59.0022L53.4372 13.2884L59.3691 21.911H52.5199L48.6672 16.0097Z" fill="white"/>
  <path d="M78.1735 5.33843V21.911H72.364V9.95552H68.1749L68.0526 12.4934C67.9711 14.6541 67.7571 16.4378 67.4105 17.8443C67.064 19.2509 66.4932 20.3516 65.6982 21.1466C64.9032 21.9212 63.8127 22.3085 62.4265 22.3085C61.7131 22.3085 60.7754 22.176 59.6134 21.911L59.8581 17.1716C60.225 17.2124 60.4696 17.2328 60.5919 17.2328C61.2238 17.2328 61.7029 17.0289 62.029 16.6213C62.3552 16.2136 62.5794 15.6734 62.7017 15.0007C62.824 14.3076 62.9055 13.3903 62.9463 12.2488L63.1909 5.33843H78.1735Z" fill="white"/>
  <path d="M99.1396 5.33843V21.911H93.6052V20.1682C92.9937 20.8205 92.2599 21.3199 91.4037 21.6664C90.568 22.013 89.671 22.1862 88.713 22.1862C86.5522 22.1862 84.8297 21.5543 83.5455 20.2905C82.2817 19.0266 81.6497 17.1309 81.6497 14.6032V5.33843H87.4593V13.6553C87.4593 16.0403 88.3868 17.2328 90.2418 17.2328C91.1591 17.2328 91.9031 16.9168 92.4739 16.2849C93.0447 15.6326 93.3301 14.644 93.3301 13.319V5.33843H99.1396Z" fill="white"/>
  <path d="M120.682 5.33843V18.8839C120.682 21.962 119.847 24.2654 118.175 25.7943C116.504 27.3435 114.098 28.1181 110.959 28.1181C109.328 28.1181 107.799 27.9347 106.372 27.5677C104.946 27.2008 103.733 26.6606 102.734 25.9472L104.844 21.8805C105.516 22.4308 106.362 22.8589 107.382 23.1647C108.421 23.4908 109.44 23.6539 110.439 23.6539C111.968 23.6539 113.089 23.3176 113.803 22.6449C114.516 21.9722 114.873 20.9733 114.873 19.6483V19.098C113.752 20.4026 112.111 21.0549 109.95 21.0549C108.482 21.0549 107.127 20.7287 105.883 20.0764C104.64 19.4037 103.651 18.466 102.917 17.2634C102.183 16.0403 101.817 14.6338 101.817 13.0438C101.817 11.4742 102.183 10.088 102.917 8.88533C103.651 7.66226 104.64 6.72457 105.883 6.07227C107.127 5.39958 108.482 5.06324 109.95 5.06324C112.315 5.06324 114.047 5.82766 115.148 7.35649V5.33843H120.682ZM111.326 16.4378C112.366 16.4378 113.222 16.1218 113.894 15.4899C114.587 14.858 114.934 14.0426 114.934 13.0438C114.934 12.0449 114.598 11.2397 113.925 10.6282C113.252 9.99629 112.386 9.68033 111.326 9.68033C110.266 9.68033 109.389 9.99629 108.696 10.6282C108.024 11.2397 107.687 12.0449 107.687 13.0438C107.687 14.0426 108.034 14.858 108.727 15.4899C109.42 16.1218 110.286 16.4378 111.326 16.4378Z" fill="white"/>
  <path d="M9.42591 30.0097V39.9885H6.63185V32.2478H2.83992V39.9885H0.0601206V30.0097H9.42591Z" fill="white"/>
  <path d="M15.5363 32.1338C16.3822 32.1338 17.1187 32.2954 17.7459 32.6185C18.3732 32.9416 18.8531 33.4073 19.1857 34.0155C19.5278 34.6142 19.6989 35.3175 19.6989 36.1253C19.6989 36.9236 19.5421 37.6269 19.2285 38.2351C18.9149 38.8338 18.4729 39.2995 17.9027 39.6321C17.3325 39.9552 16.672 40.1168 15.9212 40.1168C15.0374 40.1168 14.3436 39.846 13.84 39.3042V42.7541H11.1314V36.1538C11.1314 35.3555 11.312 34.6522 11.6731 34.044C12.0343 33.4358 12.5475 32.9654 13.2127 32.6327C13.878 32.3001 14.6525 32.1338 15.5363 32.1338ZM15.408 37.9642C15.8927 37.9642 16.2824 37.7979 16.577 37.4653C16.8811 37.1232 17.0332 36.6765 17.0332 36.1253C17.0332 35.5741 16.8811 35.1322 16.577 34.7995C16.2824 34.4574 15.8927 34.2864 15.408 34.2864C14.9234 34.2864 14.5337 34.4574 14.2391 34.7995C13.9445 35.1322 13.7972 35.5741 13.7972 36.1253C13.7972 36.686 13.9397 37.1327 14.2248 37.4653C14.5195 37.7979 14.9139 37.9642 15.408 37.9642Z" fill="white"/>
  <path d="M24.8141 40.1168C23.9873 40.1168 23.2413 39.9457 22.576 39.6036C21.9108 39.2615 21.3881 38.7863 21.008 38.1781C20.6373 37.5698 20.452 36.8808 20.452 36.111C20.452 35.3508 20.6373 34.6665 21.008 34.0583C21.3881 33.45 21.906 32.9796 22.5618 32.647C23.227 32.3049 23.9778 32.1338 24.8141 32.1338C25.6505 32.1338 26.4012 32.3049 27.0665 32.647C27.7317 32.9796 28.2497 33.45 28.6203 34.0583C28.991 34.657 29.1763 35.3413 29.1763 36.111C29.1763 36.8808 28.991 37.5698 28.6203 38.1781C28.2497 38.7863 27.7317 39.2615 27.0665 39.6036C26.4012 39.9457 25.6505 40.1168 24.8141 40.1168ZM24.8141 37.9642C25.2893 37.9642 25.679 37.8027 25.9831 37.4796C26.2872 37.1469 26.4393 36.6908 26.4393 36.111C26.4393 35.5408 26.2872 35.0942 25.9831 34.771C25.679 34.4479 25.2893 34.2864 24.8141 34.2864C24.339 34.2864 23.9493 34.4479 23.6452 34.771C23.3411 35.0942 23.189 35.5408 23.189 36.111C23.189 36.6908 23.3411 37.1469 23.6452 37.4796C23.9493 37.8027 24.339 37.9642 24.8141 37.9642Z" fill="white"/>
  <path d="M34.5379 38.0498C34.9085 38.0498 35.2269 37.9975 35.493 37.893C35.7686 37.7884 36.0442 37.6174 36.3198 37.3798L37.7311 38.8623C36.9993 39.6986 35.9064 40.1168 34.4523 40.1168C33.5495 40.1168 32.7559 39.9457 32.0717 39.6036C31.3874 39.2615 30.8552 38.7863 30.4751 38.1781C30.1044 37.5698 29.9191 36.8808 29.9191 36.111C29.9191 35.3508 30.1044 34.6712 30.4751 34.0725C30.8457 33.4643 31.3542 32.9891 32.0004 32.647C32.6562 32.3049 33.3879 32.1338 34.1957 32.1338C34.9465 32.1338 35.6308 32.2906 36.2485 32.6042C36.8758 32.9083 37.3747 33.3598 37.7453 33.9585C38.116 34.5477 38.3013 35.251 38.3013 36.0683L32.7845 37.1232C33.0791 37.7409 33.6635 38.0498 34.5379 38.0498ZM34.21 34.0583C33.7443 34.0583 33.3642 34.2056 33.0696 34.5002C32.775 34.7853 32.6086 35.1987 32.5706 35.7404L35.7068 35.1274C35.6118 34.8043 35.4312 34.5477 35.1651 34.3576C34.899 34.1581 34.5806 34.0583 34.21 34.0583Z" fill="white"/>
  <path d="M43.2137 37.2372H42.3014V39.9885H39.5928V32.2621H42.3014V35.1132H43.2707L45.1667 32.2621H48.032L45.4376 35.9685L48.2031 39.9885H45.0099L43.2137 37.2372Z" fill="white"/>
  <path d="M59.1654 32.1338C60.1157 32.1338 60.8713 32.4189 61.432 32.9891C62.0022 33.5593 62.2873 34.4194 62.2873 35.5693V39.9885H59.5788V36.0113C59.5788 35.4695 59.4742 35.0704 59.2652 34.8138C59.0656 34.5572 58.7805 34.4289 58.4098 34.4289C58.0012 34.4289 57.6733 34.5715 57.4262 34.8566C57.1791 35.1417 57.0556 35.5741 57.0556 36.1538V39.9885H54.3471V36.0113C54.3471 34.9564 53.9574 34.4289 53.1781 34.4289C52.76 34.4289 52.4273 34.5715 52.1802 34.8566C51.9331 35.1417 51.8096 35.5741 51.8096 36.1538V39.9885H49.1011V32.2621H51.6813V33.0746C51.9664 32.761 52.3038 32.5282 52.6934 32.3761C53.0926 32.2146 53.525 32.1338 53.9907 32.1338C54.5324 32.1338 55.0171 32.2336 55.4447 32.4332C55.8724 32.6327 56.2193 32.9368 56.4854 33.3455C56.7895 32.9558 57.1744 32.6565 57.6401 32.4474C58.1057 32.2383 58.6142 32.1338 59.1654 32.1338Z" fill="white"/>
  <path d="M63.9272 32.2621H66.6215V35.1274H69.4013V32.2621H72.1098V39.9885H69.4013V37.28H66.6215V39.9885H63.9272V32.2621Z" fill="white"/>
  <path d="M77.6145 40.2166C75.0581 40.2166 73.7798 39.1189 73.7798 36.9236V32.2621H76.4741V34.714C76.6737 34.581 76.9398 34.4717 77.2724 34.3861C77.6145 34.3006 78.0042 34.2578 78.4413 34.2578C79.3917 34.2578 80.1377 34.5002 80.6794 34.9849C81.2211 35.46 81.492 36.1681 81.492 37.1089C81.492 38.1258 81.1403 38.9003 80.4371 39.4325C79.7433 39.9552 78.8025 40.2166 77.6145 40.2166ZM82.1335 32.2621H84.842V39.9885H82.1335V32.2621ZM77.6145 38.3634C77.9852 38.3634 78.2655 38.2541 78.4556 38.0355C78.6457 37.8169 78.7407 37.5271 78.7407 37.1659C78.7407 36.8143 78.6457 36.5387 78.4556 36.3391C78.2655 36.1396 77.9899 36.0398 77.6288 36.0398C77.3722 36.0398 77.1441 36.0873 76.9445 36.1823C76.7449 36.2774 76.5881 36.4057 76.4741 36.5672V37.1659C76.4741 37.5366 76.5691 37.8312 76.7592 38.0498C76.9493 38.2589 77.2344 38.3634 77.6145 38.3634Z" fill="white"/>
  <path d="M90.752 38.0498C91.1226 38.0498 91.441 37.9975 91.7071 37.893C91.9827 37.7884 92.2583 37.6174 92.5339 37.3798L93.9452 38.8623C93.2134 39.6986 92.1205 40.1168 90.6664 40.1168C89.7636 40.1168 88.97 39.9457 88.2858 39.6036C87.6015 39.2615 87.0693 38.7863 86.6892 38.1781C86.3185 37.5698 86.1332 36.8808 86.1332 36.111C86.1332 35.3508 86.3185 34.6712 86.6892 34.0725C87.0598 33.4643 87.5683 32.9891 88.2145 32.647C88.8702 32.3049 89.602 32.1338 90.4098 32.1338C91.1606 32.1338 91.8449 32.2906 92.4626 32.6042C93.0898 32.9083 93.5888 33.3598 93.9594 33.9585C94.3301 34.5477 94.5154 35.251 94.5154 36.0683L88.9985 37.1232C89.2932 37.7409 89.8776 38.0498 90.752 38.0498ZM90.4241 34.0583C89.9584 34.0583 89.5783 34.2056 89.2837 34.5002C88.989 34.7853 88.8227 35.1987 88.7847 35.7404L91.9209 35.1274C91.8259 34.8043 91.6453 34.5477 91.3792 34.3576C91.1131 34.1581 90.7947 34.0583 90.4241 34.0583Z" fill="white"/>
  <path d="M103.833 40.1168C102.978 40.1168 102.213 39.9457 101.538 39.6036C100.863 39.2615 100.336 38.7863 99.9555 38.1781C99.5848 37.5698 99.3995 36.8808 99.3995 36.111C99.3995 35.3413 99.5848 34.657 99.9555 34.0583C100.336 33.45 100.863 32.9796 101.538 32.647C102.213 32.3049 102.978 32.1338 103.833 32.1338C104.707 32.1338 105.463 32.3239 106.1 32.704C106.736 33.0746 107.188 33.5926 107.454 34.2578L105.358 35.327C105.007 34.6332 104.493 34.2864 103.819 34.2864C103.334 34.2864 102.93 34.4479 102.607 34.771C102.293 35.0942 102.137 35.5408 102.137 36.111C102.137 36.6908 102.293 37.1469 102.607 37.4796C102.93 37.8027 103.334 37.9642 103.819 37.9642C104.493 37.9642 105.007 37.6174 105.358 36.9236L107.454 37.9928C107.188 38.658 106.736 39.1807 106.1 39.5608C105.463 39.9315 104.707 40.1168 103.833 40.1168Z" fill="white"/>
  <path d="M116.541 32.2621V39.9885H113.961V39.1759C113.676 39.4801 113.334 39.7129 112.935 39.8745C112.545 40.036 112.127 40.1168 111.68 40.1168C110.673 40.1168 109.87 39.8222 109.271 39.233C108.682 38.6437 108.387 37.7599 108.387 36.5815V32.2621H111.096V36.1396C111.096 37.2515 111.528 37.8074 112.393 37.8074C112.821 37.8074 113.167 37.6601 113.433 37.3655C113.7 37.0614 113.833 36.6005 113.833 35.9827V32.2621H116.541Z" fill="white"/>
  <path d="M122.237 40.1168C121.382 40.1168 120.616 39.9457 119.942 39.6036C119.267 39.2615 118.74 38.7863 118.359 38.1781C117.989 37.5698 117.803 36.8808 117.803 36.111C117.803 35.3413 117.989 34.657 118.359 34.0583C118.74 33.45 119.267 32.9796 119.942 32.647C120.616 32.3049 121.382 32.1338 122.237 32.1338C123.111 32.1338 123.867 32.3239 124.503 32.704C125.14 33.0746 125.592 33.5926 125.858 34.2578L123.762 35.327C123.411 34.6332 122.897 34.2864 122.223 34.2864C121.738 34.2864 121.334 34.4479 121.011 34.771C120.697 35.0942 120.54 35.5408 120.54 36.111C120.54 36.6908 120.697 37.1469 121.011 37.4796C121.334 37.8027 121.738 37.9642 122.223 37.9642C122.897 37.9642 123.411 37.6174 123.762 36.9236L125.858 37.9928C125.592 38.658 125.14 39.1807 124.503 39.5608C123.867 39.9315 123.111 40.1168 122.237 40.1168Z" fill="white"/>
  <path d="M137.055 32.1338C138.005 32.1338 138.761 32.4189 139.321 32.9891C139.892 33.5593 140.177 34.4194 140.177 35.5693V39.9885H137.468V36.0113C137.468 35.4695 137.364 35.0704 137.155 34.8138C136.955 34.5572 136.67 34.4289 136.299 34.4289C135.891 34.4289 135.563 34.5715 135.316 34.8566C135.069 35.1417 134.945 35.5741 134.945 36.1538V39.9885H132.237V36.0113C132.237 34.9564 131.847 34.4289 131.068 34.4289C130.649 34.4289 130.317 34.5715 130.07 34.8566C129.823 35.1417 129.699 35.5741 129.699 36.1538V39.9885H126.991V32.2621H129.571V33.0746C129.856 32.761 130.193 32.5282 130.583 32.3761C130.982 32.2146 131.414 32.1338 131.88 32.1338C132.422 32.1338 132.907 32.2336 133.334 32.4332C133.762 32.6327 134.109 32.9368 134.375 33.3455C134.679 32.9558 135.064 32.6565 135.53 32.4474C135.995 32.2383 136.504 32.1338 137.055 32.1338Z" fill="white"/>
  <path d="M145.908 38.0498C146.279 38.0498 146.597 37.9975 146.863 37.893C147.139 37.7884 147.414 37.6174 147.69 37.3798L149.101 38.8623C148.369 39.6986 147.277 40.1168 145.822 40.1168C144.92 40.1168 144.126 39.9457 143.442 39.6036C142.758 39.2615 142.225 38.7863 141.845 38.1781C141.475 37.5698 141.289 36.8808 141.289 36.111C141.289 35.3508 141.475 34.6712 141.845 34.0725C142.216 33.4643 142.724 32.9891 143.371 32.647C144.026 32.3049 144.758 32.1338 145.566 32.1338C146.317 32.1338 147.001 32.2906 147.619 32.6042C148.246 32.9083 148.745 33.3598 149.115 33.9585C149.486 34.5477 149.671 35.251 149.671 36.0683L144.155 37.1232C144.449 37.7409 145.034 38.0498 145.908 38.0498ZM145.58 34.0583C145.114 34.0583 144.734 34.2056 144.44 34.5002C144.145 34.7853 143.979 35.1987 143.941 35.7404L147.077 35.1274C146.982 34.8043 146.801 34.5477 146.535 34.3576C146.269 34.1581 145.951 34.0583 145.58 34.0583Z" fill="white"/>
  <path d="M158.461 39.9885V35.9257L156.48 39.3042H155.325L153.401 35.8687V39.9885H150.963V32.2621H153.814L155.967 36.2964L158.333 32.2621H160.885L160.899 39.9885H158.461Z" fill="white"/>
  <path d="M166.404 40.2166C163.848 40.2166 162.57 39.1189 162.57 36.9236V32.2621H165.264V34.714C165.464 34.581 165.73 34.4717 166.062 34.3861C166.404 34.3006 166.794 34.2578 167.231 34.2578C168.182 34.2578 168.928 34.5002 169.469 34.9849C170.011 35.46 170.282 36.1681 170.282 37.1089C170.282 38.1258 169.93 38.9003 169.227 39.4325C168.533 39.9552 167.592 40.2166 166.404 40.2166ZM170.923 32.2621H173.632V39.9885H170.923V32.2621ZM166.404 38.3634C166.775 38.3634 167.055 38.2541 167.245 38.0355C167.436 37.8169 167.531 37.5271 167.531 37.1659C167.531 36.8143 167.436 36.5387 167.245 36.3391C167.055 36.1396 166.78 36.0398 166.419 36.0398C166.162 36.0398 165.934 36.0873 165.734 36.1823C165.535 36.2774 165.378 36.4057 165.264 36.5672V37.1659C165.264 37.5366 165.359 37.8312 165.549 38.0498C165.739 38.2589 166.024 38.3634 166.404 38.3634Z" fill="white"/>
</svg>
