<svg xmlns="http://www.w3.org/2000/svg" width="19" height="35" viewBox="0 0 19 35" fill="none">
  <path d="M4.08342 20.9032L8.00121 11.8796H9.31557V14.4325L6.5352 20.9032H8.60784V19.7405C8.60784 19.4574 9.07966 19.4372 9.31557 19.4625V23.0264C8.6685 23.0264 8.57414 22.8073 8.60784 22.6978V21.6868H6.15606L0.0897897 35.2348H-0.137695L1.40415 30.5587C1.40415 30.5587 0.0392375 30.0279 0.494207 28.8905C0.949177 27.753 3.679 21.6868 3.679 21.6868H0.494207V20.9032H4.08342Z" fill="#FF9900"/>
  <path d="M14.295 20.9032L10.3772 11.8796H9.06281V14.4325L11.8432 20.9032H9.77054V19.7405C9.77054 19.4574 9.29872 19.4372 9.06281 19.4625V23.0264C9.70988 23.0264 9.80424 22.8073 9.77054 22.6978V21.6868H12.2223L18.2886 35.2348H18.5161L16.9742 30.5587C16.9742 30.5587 18.3391 30.0279 17.8842 28.8905C17.4292 27.753 14.6994 21.6868 14.6994 21.6868H17.8842V20.9032H14.295Z" fill="#FF9900"/>
  <path fill-rule="evenodd" clip-rule="evenodd" d="M9.21462 10.5654C10.6943 10.5654 11.8939 9.36586 11.8939 7.88615C11.8939 6.40643 10.6943 5.20688 9.21462 5.20688C7.7349 5.20688 6.53535 6.40643 6.53535 7.88615C6.53535 9.36586 7.7349 10.5654 9.21462 10.5654ZM9.21462 12.0314C11.504 12.0314 13.3599 10.1755 13.3599 7.88615C13.3599 5.59677 11.504 3.74086 9.21462 3.74086C6.92524 3.74086 5.06934 5.59677 5.06934 7.88615C5.06934 10.1755 6.92524 12.0314 9.21462 12.0314Z" fill="black"/>
  <path d="M8.45633 0H9.9729V3.99363H8.45633V0Z" fill="black"/>
</svg>
