<svg xmlns="http://www.w3.org/2000/svg" width="86" height="22" viewBox="0 0 86 22" fill="none">
  <path d="M10.0304 10.7595C9.49172 11.0687 8.83831 11.3131 8.07019 11.4927C7.30206 11.6723 6.50401 11.762 5.67603 11.762C4.55876 11.762 3.60609 11.6274 2.81801 11.358C2.03991 11.0887 1.45135 10.7146 1.05233 10.2358C0.663275 9.75695 0.46875 9.2033 0.46875 8.57483C0.46875 8.02617 0.618385 7.54236 0.917654 7.12338C1.21692 6.7044 1.63091 6.38019 2.15962 6.15075C1.75062 5.94127 1.43639 5.65197 1.21692 5.28287C1.00743 4.9038 0.90269 4.48981 0.90269 4.04091C0.90269 3.46232 1.08225 2.93361 1.44137 2.45478C1.81047 1.97595 2.36911 1.59189 3.11728 1.30259C3.86546 1.0133 4.7882 0.868652 5.88552 0.868652C6.57384 0.868652 7.25218 0.933494 7.92055 1.06318C8.58892 1.19286 9.17748 1.36743 9.68624 1.5869L8.87821 3.80149C7.95048 3.39249 6.99282 3.18799 6.00523 3.18799C5.29696 3.18799 4.76825 3.28276 4.4191 3.47229C4.06996 3.65186 3.89538 3.90623 3.89538 4.23543C3.89538 4.83397 4.32932 5.13324 5.1972 5.13324H8.15997V7.39272H5.00268C4.49392 7.39272 4.10986 7.47751 3.85049 7.6471C3.59113 7.80671 3.46144 8.04612 3.46144 8.36535C3.46144 8.70452 3.65098 8.96887 4.03005 9.15841C4.40913 9.34795 4.99769 9.44271 5.79574 9.44271C6.36435 9.44271 6.94793 9.3679 7.54647 9.21826C8.15498 9.05865 8.68369 8.84418 9.13259 8.57483L10.0304 10.7595Z" fill="black"/>
  <path d="M17.6567 7.30294C18.5845 7.61218 19.0483 8.25063 19.0483 9.21826C19.0483 9.94648 18.764 10.5201 18.1954 10.9391C17.6268 11.3481 16.7889 11.5526 15.6816 11.5526H11.1177V3.44237H15.4721C16.5295 3.44237 17.3475 3.62692 17.9261 3.99602C18.5146 4.36511 18.8089 4.88385 18.8089 5.55222C18.8089 5.94127 18.7092 6.28542 18.5097 6.58469C18.3101 6.88396 18.0258 7.12338 17.6567 7.30294ZM13.6615 6.7044H15.2177C15.8761 6.7044 16.2053 6.46 16.2053 5.97119C16.2053 5.50234 15.8761 5.26791 15.2177 5.26791H13.6615V6.7044ZM15.4272 9.71206C16.1155 9.71206 16.4597 9.46267 16.4597 8.96388C16.4597 8.4651 16.1255 8.21571 15.4571 8.21571H13.6615V9.71206H15.4272Z" fill="black"/>
  <path d="M24.2852 8.66461H23.3275V11.5526H20.4845V3.44237H23.3275V6.43506H24.3451L26.3352 3.44237H29.3428L26.6195 7.33287L29.5224 11.5526H26.1706L24.2852 8.66461Z" fill="black"/>
  <path d="M38.7248 3.44237V11.5526H35.8818V5.70185H33.8318L33.7719 6.94382C33.732 8.00123 33.6273 8.8741 33.4577 9.56242C33.2881 10.2507 33.0088 10.7894 32.6197 11.1785C32.2307 11.5575 31.697 11.7471 31.0186 11.7471C30.6695 11.7471 30.2106 11.6822 29.642 11.5526L29.7617 9.23323C29.9413 9.25318 30.061 9.26315 30.1208 9.26315C30.4301 9.26315 30.6645 9.1634 30.8241 8.96388C30.9837 8.76437 31.0935 8.50002 31.1533 8.17082C31.2132 7.83165 31.2531 7.38274 31.273 6.82411L31.3927 3.44237H38.7248Z" fill="black"/>
  <path d="M48.9851 3.44237V11.5526H46.2767V10.6996C45.9774 11.0189 45.6183 11.2633 45.1993 11.4329C44.7903 11.6024 44.3514 11.6872 43.8825 11.6872C42.8251 11.6872 41.9822 11.378 41.3537 10.7595C40.7352 10.141 40.426 9.21327 40.426 7.97629V3.44237H43.269V7.51243C43.269 8.67958 43.7229 9.26315 44.6307 9.26315C45.0796 9.26315 45.4437 9.10853 45.723 8.79929C46.0024 8.48006 46.142 7.99625 46.142 7.34783V3.44237H48.9851Z" fill="black"/>
  <path d="M59.5275 3.44237V10.0712C59.5275 11.5775 59.1185 12.7047 58.3005 13.4529C57.4825 14.2111 56.3054 14.5901 54.7692 14.5901C53.9711 14.5901 53.2229 14.5004 52.5246 14.3208C51.8263 14.1412 51.2328 13.8769 50.744 13.5277L51.7765 11.5376C52.1057 11.8069 52.5196 12.0164 53.0184 12.1661C53.5272 12.3257 54.026 12.4055 54.5148 12.4055C55.2629 12.4055 55.8116 12.2409 56.1608 11.9117C56.5099 11.5825 56.6845 11.0937 56.6845 10.4453V10.1759C56.1358 10.8144 55.3328 11.1336 54.2754 11.1336C53.5571 11.1336 52.8937 10.974 52.2852 10.6548C51.6767 10.3256 51.1929 9.86668 50.8338 9.27812C50.4746 8.67958 50.2951 7.99126 50.2951 7.21316C50.2951 6.44503 50.4746 5.76669 50.8338 5.17813C51.1929 4.57959 51.6767 4.12071 52.2852 3.80149C52.8937 3.47229 53.5571 3.3077 54.2754 3.3077C55.4325 3.3077 56.2805 3.68178 56.8191 4.42996V3.44237H59.5275ZM54.9487 8.8741C55.4575 8.8741 55.8764 8.71948 56.2056 8.41024C56.5448 8.10099 56.7144 7.70197 56.7144 7.21316C56.7144 6.72435 56.5498 6.33032 56.2206 6.03105C55.8914 5.7218 55.4674 5.56718 54.9487 5.56718C54.43 5.56718 54.001 5.7218 53.6619 6.03105C53.3327 6.33032 53.1681 6.72435 53.1681 7.21316C53.1681 7.70197 53.3377 8.10099 53.6768 8.41024C54.016 8.71948 54.44 8.8741 54.9487 8.8741Z" fill="black"/>
  <path d="M5.08154 15.5159V20.3992H3.7142V16.6111H1.85853V20.3992H0.498171V15.5159H5.08154Z" fill="black"/>
  <path d="M8.07183 16.5553C8.48575 16.5553 8.84618 16.6344 9.15314 16.7925C9.46009 16.9506 9.69496 17.1785 9.85773 17.4762C10.0252 17.7692 10.1089 18.1133 10.1089 18.5086C10.1089 18.8993 10.0321 19.2435 9.87866 19.5411C9.72519 19.8341 9.50892 20.062 9.22988 20.2248C8.95083 20.3829 8.6276 20.462 8.26018 20.462C7.82766 20.462 7.48815 20.3294 7.24166 20.0643V21.7526H5.91618V18.5226C5.91618 18.1319 6.00454 17.7878 6.18127 17.4901C6.358 17.1925 6.60915 16.9623 6.9347 16.7995C7.26026 16.6367 7.6393 16.5553 8.07183 16.5553ZM8.00904 19.4086C8.24623 19.4086 8.43691 19.3272 8.58109 19.1644C8.72991 18.997 8.80433 18.7784 8.80433 18.5086C8.80433 18.2389 8.72991 18.0226 8.58109 17.8599C8.43691 17.6924 8.24623 17.6087 8.00904 17.6087C7.77185 17.6087 7.58117 17.6924 7.43699 17.8599C7.29282 18.0226 7.22073 18.2389 7.22073 18.5086C7.22073 18.783 7.29049 19.0016 7.43001 19.1644C7.57419 19.3272 7.7672 19.4086 8.00904 19.4086Z" fill="black"/>
  <path d="M12.6121 20.462C12.2075 20.462 11.8424 20.3783 11.5169 20.2108C11.1913 20.0434 10.9355 19.8109 10.7495 19.5132C10.5681 19.2156 10.4774 18.8784 10.4774 18.5017C10.4774 18.1296 10.5681 17.7948 10.7495 17.4971C10.9355 17.1994 11.189 16.9692 11.5099 16.8065C11.8355 16.639 12.2029 16.5553 12.6121 16.5553C13.0214 16.5553 13.3888 16.639 13.7144 16.8065C14.0399 16.9692 14.2934 17.1994 14.4748 17.4971C14.6562 17.7901 14.7469 18.125 14.7469 18.5017C14.7469 18.8784 14.6562 19.2156 14.4748 19.5132C14.2934 19.8109 14.0399 20.0434 13.7144 20.2108C13.3888 20.3783 13.0214 20.462 12.6121 20.462ZM12.6121 19.4086C12.8447 19.4086 13.0354 19.3295 13.1842 19.1714C13.333 19.0086 13.4074 18.7854 13.4074 18.5017C13.4074 18.2226 13.333 18.004 13.1842 17.8459C13.0354 17.6878 12.8447 17.6087 12.6121 17.6087C12.3796 17.6087 12.1889 17.6878 12.0401 17.8459C11.8913 18.004 11.8168 18.2226 11.8168 18.5017C11.8168 18.7854 11.8913 19.0086 12.0401 19.1714C12.1889 19.3295 12.3796 19.4086 12.6121 19.4086Z" fill="black"/>
  <path d="M17.3707 19.4504C17.5521 19.4504 17.7079 19.4249 17.8381 19.3737C17.973 19.3225 18.1078 19.2388 18.2427 19.1226L18.9333 19.8481C18.5752 20.2574 18.0404 20.462 17.3288 20.462C16.887 20.462 16.4986 20.3783 16.1638 20.2108C15.8289 20.0434 15.5685 19.8109 15.3825 19.5132C15.2011 19.2156 15.1104 18.8784 15.1104 18.5017C15.1104 18.1296 15.2011 17.7971 15.3825 17.5041C15.5638 17.2064 15.8127 16.9739 16.1289 16.8065C16.4498 16.639 16.8079 16.5553 17.2032 16.5553C17.5707 16.5553 17.9055 16.632 18.2078 16.7855C18.5148 16.9344 18.7589 17.1553 18.9403 17.4483C19.1217 17.7366 19.2124 18.0808 19.2124 18.4807L16.5126 18.997C16.6568 19.2993 16.9428 19.4504 17.3707 19.4504ZM17.2102 17.4971C16.9823 17.4971 16.7963 17.5692 16.6521 17.7134C16.5079 17.8529 16.4266 18.0552 16.408 18.3203L17.9427 18.0203C17.8962 17.8622 17.8078 17.7366 17.6776 17.6436C17.5474 17.5459 17.3916 17.4971 17.2102 17.4971Z" fill="black"/>
  <path d="M21.6164 19.0528H21.1699V20.3992H19.8444V16.6181H21.1699V18.0133H21.6443L22.5721 16.6181H23.9744L22.7047 18.4319L24.0581 20.3992H22.4954L21.6164 19.0528Z" fill="black"/>
  <path d="M29.4227 16.5553C29.8878 16.5553 30.2575 16.6948 30.5319 16.9739C30.811 17.2529 30.9505 17.6738 30.9505 18.2366V20.3992H29.625V18.4528C29.625 18.1877 29.5739 17.9924 29.4716 17.8668C29.3739 17.7413 29.2344 17.6785 29.053 17.6785C28.853 17.6785 28.6926 17.7482 28.5716 17.8878C28.4507 18.0273 28.3902 18.2389 28.3902 18.5226V20.3992H27.0648V18.4528C27.0648 17.9366 26.8741 17.6785 26.4927 17.6785C26.2881 17.6785 26.1253 17.7482 26.0044 17.8878C25.8835 18.0273 25.823 18.2389 25.823 18.5226V20.3992H24.4975V16.6181H25.7602V17.0157C25.8997 16.8623 26.0648 16.7483 26.2555 16.6739C26.4509 16.5948 26.6625 16.5553 26.8904 16.5553C27.1555 16.5553 27.3926 16.6041 27.6019 16.7018C27.8112 16.7995 27.981 16.9483 28.1112 17.1483C28.26 16.9576 28.4484 16.8111 28.6763 16.7088C28.9042 16.6065 29.153 16.5553 29.4227 16.5553Z" fill="black"/>
  <path d="M31.7531 16.6181H33.0716V18.0203H34.4319V16.6181H35.7574V20.3992H34.4319V19.0737H33.0716V20.3992H31.7531V16.6181Z" fill="black"/>
  <path d="M38.4512 20.5108C37.2002 20.5108 36.5746 19.9737 36.5746 18.8993V16.6181H37.8932V17.818C37.9908 17.7529 38.121 17.6994 38.2838 17.6576C38.4512 17.6157 38.6419 17.5948 38.8559 17.5948C39.3209 17.5948 39.686 17.7134 39.9511 17.9506C40.2162 18.1831 40.3488 18.5296 40.3488 18.99C40.3488 19.4876 40.1767 19.8667 39.8325 20.1271C39.493 20.3829 39.0326 20.5108 38.4512 20.5108ZM40.6627 16.6181H41.9882V20.3992H40.6627V16.6181ZM38.4512 19.6039C38.6326 19.6039 38.7698 19.5504 38.8628 19.4435C38.9559 19.3365 39.0024 19.1946 39.0024 19.0179C39.0024 18.8458 38.9559 18.711 38.8628 18.6133C38.7698 18.5156 38.635 18.4668 38.4582 18.4668C38.3327 18.4668 38.221 18.49 38.1234 18.5366C38.0257 18.5831 37.949 18.6458 37.8932 18.7249V19.0179C37.8932 19.1993 37.9397 19.3435 38.0327 19.4504C38.1257 19.5528 38.2652 19.6039 38.4512 19.6039Z" fill="black"/>
  <path d="M44.8804 19.4504C45.0617 19.4504 45.2175 19.4249 45.3478 19.3737C45.4826 19.3225 45.6175 19.2388 45.7524 19.1226L46.443 19.8481C46.0849 20.2574 45.5501 20.462 44.8385 20.462C44.3967 20.462 44.0083 20.3783 43.6735 20.2108C43.3386 20.0434 43.0782 19.8109 42.8921 19.5132C42.7108 19.2156 42.6201 18.8784 42.6201 18.5017C42.6201 18.1296 42.7108 17.7971 42.8921 17.5041C43.0735 17.2064 43.3223 16.9739 43.6386 16.8065C43.9595 16.639 44.3176 16.5553 44.7129 16.5553C45.0804 16.5553 45.4152 16.632 45.7175 16.7855C46.0245 16.9344 46.2686 17.1553 46.45 17.4483C46.6314 17.7366 46.7221 18.0808 46.7221 18.4807L44.0223 18.997C44.1665 19.2993 44.4525 19.4504 44.8804 19.4504ZM44.7199 17.4971C44.492 17.4971 44.306 17.5692 44.1618 17.7134C44.0176 17.8529 43.9363 18.0552 43.9176 18.3203L45.4524 18.0203C45.4059 17.8622 45.3175 17.7366 45.1873 17.6436C45.0571 17.5459 44.9013 17.4971 44.7199 17.4971Z" fill="black"/>
  <path d="M51.2819 20.462C50.8633 20.462 50.4889 20.3783 50.1587 20.2108C49.8285 20.0434 49.5704 19.8109 49.3843 19.5132C49.2029 19.2156 49.1123 18.8784 49.1123 18.5017C49.1123 18.125 49.2029 17.7901 49.3843 17.4971C49.5704 17.1994 49.8285 16.9692 50.1587 16.8065C50.4889 16.639 50.8633 16.5553 51.2819 16.5553C51.7097 16.5553 52.0795 16.6483 52.3911 16.8344C52.7027 17.0157 52.9236 17.2692 53.0538 17.5948L52.0283 18.118C51.8562 17.7785 51.6051 17.6087 51.2749 17.6087C51.0377 17.6087 50.84 17.6878 50.6819 17.8459C50.5284 18.004 50.4517 18.2226 50.4517 18.5017C50.4517 18.7854 50.5284 19.0086 50.6819 19.1714C50.84 19.3295 51.0377 19.4086 51.2749 19.4086C51.6051 19.4086 51.8562 19.2388 52.0283 18.8993L53.0538 19.4225C52.9236 19.7481 52.7027 20.0039 52.3911 20.1899C52.0795 20.3713 51.7097 20.462 51.2819 20.462Z" fill="black"/>
  <path d="M57.5009 16.6181V20.3992H56.2382V20.0016C56.0987 20.1504 55.9313 20.2643 55.7359 20.3434C55.5453 20.4225 55.3406 20.462 55.122 20.462C54.6291 20.462 54.2361 20.3178 53.9431 20.0295C53.6547 19.7411 53.5105 19.3086 53.5105 18.7319V16.6181H54.836V18.5156C54.836 19.0598 55.0476 19.3318 55.4708 19.3318C55.6801 19.3318 55.8499 19.2598 55.9801 19.1156C56.1103 18.9668 56.1754 18.7412 56.1754 18.4389V16.6181H57.5009Z" fill="black"/>
  <path d="M60.2882 20.462C59.8697 20.462 59.4953 20.3783 59.1651 20.2108C58.8349 20.0434 58.5767 19.8109 58.3907 19.5132C58.2093 19.2156 58.1186 18.8784 58.1186 18.5017C58.1186 18.125 58.2093 17.7901 58.3907 17.4971C58.5767 17.1994 58.8349 16.9692 59.1651 16.8065C59.4953 16.639 59.8697 16.5553 60.2882 16.5553C60.7161 16.5553 61.0859 16.6483 61.3975 16.8344C61.7091 17.0157 61.93 17.2692 62.0602 17.5948L61.0347 18.118C60.8626 17.7785 60.6115 17.6087 60.2813 17.6087C60.0441 17.6087 59.8464 17.6878 59.6883 17.8459C59.5348 18.004 59.4581 18.2226 59.4581 18.5017C59.4581 18.7854 59.5348 19.0086 59.6883 19.1714C59.8464 19.3295 60.0441 19.4086 60.2813 19.4086C60.6115 19.4086 60.8626 19.2388 61.0347 18.8993L62.0602 19.4225C61.93 19.7481 61.7091 20.0039 61.3975 20.1899C61.0859 20.3713 60.7161 20.462 60.2882 20.462Z" fill="black"/>
  <path d="M67.5398 16.5553C68.0049 16.5553 68.3746 16.6948 68.649 16.9739C68.9281 17.2529 69.0676 17.6738 69.0676 18.2366V20.3992H67.7421V18.4528C67.7421 18.1877 67.6909 17.9924 67.5886 17.8668C67.491 17.7413 67.3514 17.6785 67.1701 17.6785C66.9701 17.6785 66.8096 17.7482 66.6887 17.8878C66.5678 18.0273 66.5073 18.2389 66.5073 18.5226V20.3992H65.1818V18.4528C65.1818 17.9366 64.9912 17.6785 64.6098 17.6785C64.4052 17.6785 64.2424 17.7482 64.1215 17.8878C64.0005 18.0273 63.9401 18.2389 63.9401 18.5226V20.3992H62.6146V16.6181H63.8773V17.0157C64.0168 16.8623 64.1819 16.7483 64.3726 16.6739C64.5679 16.5948 64.7795 16.5553 65.0074 16.5553C65.2725 16.5553 65.5097 16.6041 65.719 16.7018C65.9283 16.7995 66.098 16.9483 66.2283 17.1483C66.3771 16.9576 66.5655 16.8111 66.7933 16.7088C67.0212 16.6065 67.2701 16.5553 67.5398 16.5553Z" fill="black"/>
  <path d="M71.8723 19.4504C72.0537 19.4504 72.2095 19.4249 72.3397 19.3737C72.4746 19.3225 72.6095 19.2388 72.7443 19.1226L73.435 19.8481C73.0769 20.2574 72.542 20.462 71.8304 20.462C71.3886 20.462 71.0003 20.3783 70.6654 20.2108C70.3306 20.0434 70.0701 19.8109 69.8841 19.5132C69.7027 19.2156 69.612 18.8784 69.612 18.5017C69.612 18.1296 69.7027 17.7971 69.8841 17.5041C70.0655 17.2064 70.3143 16.9739 70.6305 16.8065C70.9514 16.639 71.3095 16.5553 71.7049 16.5553C72.0723 16.5553 72.4071 16.632 72.7094 16.7855C73.0164 16.9344 73.2606 17.1553 73.4419 17.4483C73.6233 17.7366 73.714 18.0808 73.714 18.4807L71.0142 18.997C71.1584 19.2993 71.4444 19.4504 71.8723 19.4504ZM71.7118 17.4971C71.4839 17.4971 71.2979 17.5692 71.1537 17.7134C71.0096 17.8529 70.9282 18.0552 70.9096 18.3203L72.4443 18.0203C72.3978 17.8622 72.3095 17.7366 72.1792 17.6436C72.049 17.5459 71.8932 17.4971 71.7118 17.4971Z" fill="black"/>
  <path d="M78.0155 20.3992V18.411L77.0459 20.0643H76.4808L75.539 18.3831V20.3992H74.3461V16.6181H75.7413L76.7947 18.5924L77.9528 16.6181H79.2015L79.2085 20.3992H78.0155Z" fill="black"/>
  <path d="M81.9027 20.5108C80.6516 20.5108 80.0261 19.9737 80.0261 18.8993V16.6181H81.3446V17.818C81.4422 17.7529 81.5725 17.6994 81.7352 17.6576C81.9027 17.6157 82.0933 17.5948 82.3073 17.5948C82.7724 17.5948 83.1375 17.7134 83.4025 17.9506C83.6676 18.1831 83.8002 18.5296 83.8002 18.99C83.8002 19.4876 83.6281 19.8667 83.284 20.1271C82.9444 20.3829 82.484 20.5108 81.9027 20.5108ZM84.1141 16.6181H85.4396V20.3992H84.1141V16.6181ZM81.9027 19.6039C82.084 19.6039 82.2212 19.5504 82.3143 19.4435C82.4073 19.3365 82.4538 19.1946 82.4538 19.0179C82.4538 18.8458 82.4073 18.711 82.3143 18.6133C82.2212 18.5156 82.0864 18.4668 81.9096 18.4668C81.7841 18.4668 81.6724 18.49 81.5748 18.5366C81.4771 18.5831 81.4004 18.6458 81.3446 18.7249V19.0179C81.3446 19.1993 81.3911 19.3435 81.4841 19.4504C81.5771 19.5528 81.7166 19.6039 81.9027 19.6039Z" fill="black"/>
</svg>
