<svg width="174" height="40" viewBox="0 0 174 40" fill="none" xmlns="http://www.w3.org/2000/svg">
<path d="M3.28916 32.7802L0.789258 29.1348H2.59512L4.29316 31.7425L6.00469 29.1348H7.79707L5.29043 32.7802L7.9251 36.5873H6.13271L4.29316 33.7977L2.46035 36.5873H0.667969L3.28916 32.7802Z" fill="white"/>
<path d="M8.10029 29.1348H9.82529L11.3414 33.3597C11.5705 33.9616 11.7232 34.5276 11.7996 35.0577H11.8535C11.8939 34.8106 11.9681 34.5119 12.0759 34.1615C12.1837 33.8066 12.7542 32.1311 13.7874 29.1348H15.4989L12.3117 37.5778C11.7322 39.1276 10.7664 39.9025 9.41426 39.9025C9.06387 39.9025 8.72246 39.8644 8.39004 39.788V38.5347C8.62813 38.5886 8.8999 38.6155 9.20537 38.6155C9.96904 38.6155 10.5059 38.173 10.8158 37.2881L11.0921 36.5873L8.10029 29.1348Z" fill="white"/>
<path d="M23.7803 39.222H22.3046V36.5873H17.197V39.222H15.7348V35.3609H16.3412C16.8713 34.6018 17.2913 33.6854 17.6013 32.6117C17.9157 31.5336 18.1021 30.3746 18.1605 29.1348H22.6887V35.3609H23.7803V39.222ZM21.1321 35.3609V30.3477H19.5284C19.4431 31.273 19.2634 32.185 18.9894 33.0834C18.7198 33.9818 18.3896 34.741 17.9988 35.3609H21.1321Z" fill="white"/>
<path d="M31.7719 32.8476C31.7719 34.0649 31.4597 35.015 30.8353 35.6979C30.2108 36.3807 29.3416 36.7221 28.2275 36.7221C27.5312 36.7221 26.9158 36.5648 26.3813 36.2504C25.8467 35.9359 25.4356 35.4845 25.1481 34.896C24.8606 34.3075 24.7169 33.6247 24.7169 32.8476C24.7169 31.6392 25.0269 30.6958 25.6468 30.0175C26.2667 29.3392 27.1404 29 28.268 29C29.3461 29 30.1996 29.3481 30.8285 30.0444C31.4574 30.7362 31.7719 31.6706 31.7719 32.8476ZM26.3476 32.8476C26.3476 34.5681 26.9832 35.4283 28.2545 35.4283C29.5123 35.4283 30.1412 34.5681 30.1412 32.8476C30.1412 31.145 29.5078 30.2938 28.241 30.2938C27.5762 30.2938 27.0933 30.5139 26.7923 30.9541C26.4958 31.3943 26.3476 32.0255 26.3476 32.8476Z" fill="white"/>
<path d="M37.2703 32.7532V29.1348H38.746V32.7532L41.6165 29.1348H43.2876L40.3564 32.7397L43.5504 36.5873H41.8052L38.746 32.8071V36.5873H37.2703V32.8071L34.2179 36.5873H32.4794L35.6666 32.7397L32.7422 29.1348H34.4133L37.2703 32.7532Z" fill="white"/>
<path d="M47.9572 36.7221C46.7982 36.7221 45.8908 36.3852 45.235 35.7113C44.5836 35.033 44.2579 34.1009 44.2579 32.9149C44.2579 31.6976 44.5611 30.7407 45.1676 30.0444C45.774 29.3481 46.6073 29 47.6675 29C48.6513 29 49.4284 29.2987 49.9989 29.8962C50.5694 30.4937 50.8547 31.3157 50.8547 32.3624V33.2182H45.8886C45.911 33.9414 46.1064 34.4984 46.4748 34.8893C46.8432 35.2756 47.362 35.4687 48.0313 35.4687C48.4716 35.4687 48.8804 35.4283 49.2577 35.3475C49.6396 35.2621 50.0483 35.1229 50.4841 34.9297V36.2167C50.0978 36.4009 49.7069 36.5312 49.3116 36.6075C48.9163 36.6839 48.4648 36.7221 47.9572 36.7221ZM47.6675 30.1994C47.1644 30.1994 46.7601 30.3589 46.4546 30.6778C46.1536 30.9968 45.9739 31.4617 45.9155 32.0727H49.2981C49.2892 31.4572 49.1409 30.9923 48.8534 30.6778C48.5659 30.3589 48.1706 30.1994 47.6675 30.1994Z" fill="white"/>
<path d="M55.6591 36.7221C54.5315 36.7221 53.6735 36.3941 53.0851 35.7383C52.5011 35.0779 52.2091 34.1323 52.2091 32.9015C52.2091 31.6481 52.5145 30.6846 53.1255 30.0107C53.7409 29.3369 54.6281 29 55.7871 29C56.5732 29 57.2808 29.146 57.9097 29.438L57.4313 30.7115C56.7619 30.451 56.2094 30.3207 55.7736 30.3207C54.4844 30.3207 53.8397 31.1765 53.8397 32.888C53.8397 33.7235 53.9992 34.3524 54.3182 34.7747C54.6416 35.1925 55.1133 35.4014 55.7332 35.4014C56.4385 35.4014 57.1056 35.2262 57.7345 34.8758V36.2571C57.4515 36.4233 57.1482 36.5424 56.8248 36.6143C56.5059 36.6861 56.1173 36.7221 55.6591 36.7221Z" fill="white"/>
<path d="M65.0859 29.1348V30.3746H62.6602V36.5873H61.0699V30.3746H58.6441V29.1348H65.0859Z" fill="white"/>
<path d="M72.9899 31.0417C72.9899 31.9222 72.4756 32.4545 71.4469 32.6387V32.6926C72.0219 32.76 72.4621 32.9419 72.7676 33.2384C73.073 33.5349 73.2258 33.9189 73.2258 34.3906C73.2258 35.0959 72.9563 35.6395 72.4172 36.0213C71.8826 36.3986 71.1032 36.5873 70.079 36.5873H66.5212V29.1348H70.0655C72.0151 29.1348 72.9899 29.7704 72.9899 31.0417ZM71.6019 34.2963C71.6019 33.9369 71.4626 33.6831 71.1841 33.5349C70.9056 33.3821 70.4878 33.3058 69.9308 33.3058H68.1047V35.4148H69.9712C71.0583 35.4148 71.6019 35.042 71.6019 34.2963ZM71.4064 31.1765C71.4064 30.88 71.2896 30.6666 71.0561 30.5363C70.827 30.4016 70.4833 30.3342 70.0251 30.3342H68.1047V32.1266H69.7893C70.3193 32.1266 70.7214 32.0592 70.9954 31.9244C71.2694 31.7852 71.4064 31.5358 71.4064 31.1765Z" fill="white"/>
<path d="M78.1178 36.7221C76.9588 36.7221 76.0514 36.3852 75.3955 35.7113C74.7441 35.033 74.4185 34.1009 74.4185 32.9149C74.4185 31.6976 74.7217 30.7407 75.3281 30.0444C75.9346 29.3481 76.7679 29 77.828 29C78.8118 29 79.589 29.2987 80.1595 29.8962C80.73 30.4937 81.0152 31.3157 81.0152 32.3624V33.2182H76.0491C76.0716 33.9414 76.267 34.4984 76.6354 34.8893C77.0037 35.2756 77.5226 35.4687 78.1919 35.4687C78.6321 35.4687 79.0409 35.4283 79.4183 35.3475C79.8001 35.2621 80.2089 35.1229 80.6446 34.9297V36.2167C80.2583 36.4009 79.8675 36.5312 79.4722 36.6075C79.0769 36.6839 78.6254 36.7221 78.1178 36.7221ZM77.828 30.1994C77.3249 30.1994 76.9206 30.3589 76.6151 30.6778C76.3142 30.9968 76.1345 31.4617 76.0761 32.0727H79.4587C79.4497 31.4572 79.3015 30.9923 79.014 30.6778C78.7265 30.3589 78.3312 30.1994 77.828 30.1994Z" fill="white"/>
<path d="M84.3979 29.1348V32.1266H87.9085V29.1348H89.492V36.5873H87.9085V33.3731H84.3979V36.5873H82.8144V29.1348H84.3979Z" fill="white"/>
<path d="M93.3463 29.1348V32.1266H96.8569V29.1348H98.4404V36.5873H96.8569V33.3731H93.3463V36.5873H91.7628V29.1348H93.3463Z" fill="white"/>
<path d="M105.374 36.5873L105.057 35.5496H105.004C104.644 36.0033 104.283 36.3133 103.919 36.4795C103.555 36.6412 103.088 36.7221 102.517 36.7221C101.785 36.7221 101.212 36.5244 100.799 36.1291C100.39 35.7338 100.186 35.1745 100.186 34.4513C100.186 33.6831 100.471 33.1036 101.041 32.7128C101.612 32.322 102.481 32.1086 103.649 32.0727L104.936 32.0322V31.6347C104.936 31.1585 104.824 30.8036 104.599 30.57C104.379 30.3319 104.035 30.2129 103.568 30.2129C103.186 30.2129 102.82 30.269 102.47 30.3813C102.12 30.4937 101.783 30.6262 101.459 30.7789L100.947 29.6469C101.351 29.4357 101.794 29.2763 102.275 29.1685C102.755 29.0562 103.209 29 103.636 29C104.583 29 105.298 29.2066 105.778 29.6199C106.264 30.0332 106.506 30.6823 106.506 31.5673V36.5873H105.374ZM103.016 35.5092C103.591 35.5092 104.051 35.3497 104.397 35.0308C104.747 34.7073 104.923 34.2559 104.923 33.6764V33.0295L103.966 33.0699C103.22 33.0969 102.677 33.2227 102.335 33.4473C101.998 33.6674 101.83 34.0065 101.83 34.4647C101.83 34.7972 101.929 35.0555 102.126 35.2396C102.324 35.4193 102.62 35.5092 103.016 35.5092Z" fill="white"/>
<path d="M109.478 36.5873H107.706L109.781 33.5349C109.278 33.3911 108.883 33.1351 108.595 32.7667C108.308 32.3938 108.164 31.9334 108.164 31.3854C108.164 30.6801 108.415 30.1298 108.918 29.7345C109.422 29.3347 110.109 29.1348 110.98 29.1348H114.376V36.5873H112.786V33.7168H111.284L109.478 36.5873ZM109.707 31.3988C109.707 31.7807 109.851 32.0682 110.138 32.2613C110.43 32.45 110.821 32.5443 111.311 32.5443H112.786V30.3342H111.061C110.63 30.3342 110.295 30.4263 110.057 30.6104C109.824 30.7946 109.707 31.0574 109.707 31.3988Z" fill="white"/>
<path d="M125.043 29.1348V30.3746H121.809V36.5873H120.225V29.1348H125.043Z" fill="white"/>
<path d="M131.141 36.5873L130.825 35.5496H130.771C130.411 36.0033 130.05 36.3133 129.686 36.4795C129.322 36.6412 128.855 36.7221 128.284 36.7221C127.552 36.7221 126.979 36.5244 126.566 36.1291C126.157 35.7338 125.953 35.1745 125.953 34.4513C125.953 33.6831 126.238 33.1036 126.809 32.7128C127.379 32.322 128.248 32.1086 129.416 32.0727L130.703 32.0322V31.6347C130.703 31.1585 130.591 30.8036 130.366 30.57C130.146 30.3319 129.803 30.2129 129.335 30.2129C128.954 30.2129 128.588 30.269 128.237 30.3813C127.887 30.4937 127.55 30.6262 127.226 30.7789L126.714 29.6469C127.119 29.4357 127.561 29.2763 128.042 29.1685C128.522 29.0562 128.976 29 129.403 29C130.351 29 131.065 29.2066 131.546 29.6199C132.031 30.0332 132.273 30.6823 132.273 31.5673V36.5873H131.141ZM128.783 35.5092C129.358 35.5092 129.818 35.3497 130.164 35.0308C130.515 34.7073 130.69 34.2559 130.69 33.6764V33.0295L129.733 33.0699C128.987 33.0969 128.444 33.2227 128.102 33.4473C127.765 33.6674 127.597 34.0065 127.597 34.4647C127.597 34.7972 127.696 35.0555 127.893 35.2396C128.091 35.4193 128.388 35.5092 128.783 35.5092Z" fill="white"/>
<path d="M140.609 36.5873H139.012V30.3746H136.956C136.831 31.9738 136.66 33.2227 136.444 34.1211C136.233 35.0195 135.955 35.6754 135.609 36.0887C135.267 36.502 134.823 36.7086 134.275 36.7086C133.929 36.7086 133.639 36.6592 133.405 36.5604V35.3205C133.572 35.3834 133.738 35.4148 133.904 35.4148C134.362 35.4148 134.722 34.9005 134.982 33.8718C135.247 32.8386 135.454 31.2596 135.602 29.1348H140.609V36.5873Z" fill="white"/>
<path d="M146.134 36.7221C144.975 36.7221 144.068 36.3852 143.412 35.7113C142.76 35.033 142.435 34.1009 142.435 32.9149C142.435 31.6976 142.738 30.7407 143.344 30.0444C143.951 29.3481 144.784 29 145.844 29C146.828 29 147.605 29.2987 148.176 29.8962C148.746 30.4937 149.031 31.3157 149.031 32.3624V33.2182H144.065C144.088 33.9414 144.283 34.4984 144.652 34.8893C145.02 35.2756 145.539 35.4687 146.208 35.4687C146.648 35.4687 147.057 35.4283 147.434 35.3475C147.816 35.2621 148.225 35.1229 148.661 34.9297V36.2167C148.275 36.4009 147.884 36.5312 147.488 36.6075C147.093 36.6839 146.642 36.7221 146.134 36.7221ZM145.844 30.1994C145.341 30.1994 144.937 30.3589 144.631 30.6778C144.33 30.9968 144.151 31.4617 144.092 32.0727H147.475C147.466 31.4572 147.318 30.9923 147.03 30.6778C146.743 30.3589 146.347 30.1994 145.844 30.1994Z" fill="white"/>
<path d="M154.611 36.7221C153.667 36.7221 152.935 36.3829 152.414 35.7046H152.32C152.383 36.3335 152.414 36.7153 152.414 36.8501V39.9025H150.831V29.1348H152.111C152.147 29.274 152.221 29.6064 152.333 30.132H152.414C152.908 29.3773 153.649 29 154.638 29C155.568 29 156.291 29.3369 156.807 30.0107C157.329 30.6846 157.589 31.6302 157.589 32.8476C157.589 34.0649 157.324 35.015 156.794 35.6979C156.268 36.3807 155.541 36.7221 154.611 36.7221ZM154.227 30.2938C153.598 30.2938 153.137 30.4779 152.845 30.8463C152.558 31.2146 152.414 31.8031 152.414 32.6117V32.8476C152.414 33.755 152.558 34.4131 152.845 34.8219C153.133 35.2262 153.602 35.4283 154.254 35.4283C154.802 35.4283 155.224 35.2037 155.52 34.7545C155.817 34.3053 155.965 33.6651 155.965 32.8341C155.965 31.9985 155.817 31.3674 155.52 30.9406C155.228 30.5094 154.797 30.2938 154.227 30.2938Z" fill="white"/>
<path d="M162.683 36.7221C161.524 36.7221 160.617 36.3852 159.961 35.7113C159.31 35.033 158.984 34.1009 158.984 32.9149C158.984 31.6976 159.287 30.7407 159.894 30.0444C160.5 29.3481 161.333 29 162.393 29C163.377 29 164.154 29.2987 164.725 29.8962C165.295 30.4937 165.581 31.3157 165.581 32.3624V33.2182H160.615C160.637 33.9414 160.832 34.4984 161.201 34.8893C161.569 35.2756 162.088 35.4687 162.757 35.4687C163.198 35.4687 163.606 35.4283 163.984 35.3475C164.366 35.2621 164.774 35.1229 165.21 34.9297V36.2167C164.824 36.4009 164.433 36.5312 164.038 36.6075C163.642 36.6839 163.191 36.7221 162.683 36.7221ZM162.393 30.1994C161.89 30.1994 161.486 30.3589 161.181 30.6778C160.88 30.9968 160.7 31.4617 160.642 32.0727H164.024C164.015 31.4572 163.867 30.9923 163.579 30.6778C163.292 30.3589 162.897 30.1994 162.393 30.1994Z" fill="white"/>
<path d="M168.141 36.5873H166.369L168.444 33.5349C167.941 33.3911 167.546 33.1351 167.258 32.7667C166.971 32.3938 166.827 31.9334 166.827 31.3854C166.827 30.6801 167.079 30.1298 167.582 29.7345C168.085 29.3347 168.772 29.1348 169.644 29.1348H173.04V36.5873H171.45V33.7168H169.947L168.141 36.5873ZM168.37 31.3988C168.37 31.7807 168.514 32.0682 168.802 32.2613C169.094 32.45 169.484 32.5443 169.974 32.5443H171.45V30.3342H169.725C169.293 30.3342 168.959 30.4263 168.721 30.6104C168.487 30.7946 168.37 31.0574 168.37 31.3988Z" fill="white"/>
<path d="M0.5 21.5989H12.1611C16.7601 21.5989 19.1142 19.5161 19.1142 15.5512V15.4895C19.1142 12.5428 17.6175 10.7532 14.7334 10.244V9.96634C17.1498 9.50351 18.4126 7.92987 18.4126 5.36886V5.29173C18.4126 1.80505 16.2145 0 11.9117 0H0.5V21.5989ZM5.09897 8.84011V3.0547H10.5398C12.7379 3.0547 13.8292 4.01122 13.8292 5.89341V5.95512C13.8292 7.86816 12.7379 8.84011 10.5398 8.84011H5.09897ZM5.09897 18.5288V11.648H10.6801C13.0965 11.648 14.2969 12.7896 14.2969 15.0266V15.0884C14.2969 17.3717 13.0965 18.5288 10.6801 18.5288H5.09897Z" fill="white"/>
<path d="M23.4462 0V21.5989H27.9828V0H23.4462Z" fill="white"/>
<path d="M37.4751 22C41.1387 22 43.8046 20.3801 44.7867 17.6339L45.0985 17.7111C44.5061 20.7041 45.1297 22 48.7153 22C49.1674 22 49.6195 21.9537 49.9937 21.892L50.5237 19.223L49.7443 19.2076C48.8868 19.1921 48.6374 18.9916 48.6374 17.8962V10.4755C48.6374 6.80365 46.1742 5.04488 40.9205 5.04488C35.3393 5.04488 32.5176 7.2202 32.7514 10.9846L37.2257 11.3548C37.0386 8.87097 38.317 7.74474 40.8269 7.74474C43.0718 7.74474 44.1319 8.56241 44.1319 10.4292V11.3394L39.7045 12.1417C35.277 12.9593 32.3461 14.3478 32.3461 17.7419V17.7882C32.3461 20.4727 34.1857 22 37.4751 22ZM39.2835 19.007C37.7557 19.007 36.9295 18.467 36.9295 17.3562V17.3254C36.9295 15.7363 38.3793 15.0884 41.2478 14.533L44.1319 13.9776V14.7335C44.1319 17.2174 41.8714 19.007 39.2835 19.007Z" fill="white"/>
<path d="M54.3414 21.5989H58.878V14.0701C58.878 10.4292 60.6084 8.17672 63.4769 8.17672C65.6127 8.17672 66.6728 9.27209 66.6728 11.3703V21.5989H71.2095V10.2903C71.2095 6.89621 69.1984 5.10659 65.4568 5.10659C62.0583 5.10659 59.7354 6.58766 58.3635 9.67321L58.0517 9.53436C58.6753 7.69846 58.8936 6.60309 58.8936 5.39972H54.3414V21.5989Z" fill="white"/>
<path d="M84.7083 21.9846C90.0556 21.9846 93.0488 19.8555 93.5009 15.7363L88.9175 15.2272C88.7305 17.8191 87.2962 19.1304 84.7239 19.1304C81.8398 19.1304 80.3432 17.3408 80.3432 13.8079V13.0519C80.3432 9.59607 81.8554 7.85273 84.6771 7.85273C87.2806 7.85273 88.6369 9.28752 88.8396 12.1571L93.3606 11.648C93.002 7.28191 90.118 5.01403 84.6927 5.01403C78.7998 5.01403 75.6974 7.86816 75.6974 13.3296V13.5302C75.6974 19.0842 78.7686 21.9846 84.7083 21.9846Z" fill="white"/>
<path d="M98.0201 21.5989H102.557V14.0701C102.557 10.4292 104.272 8.19215 107.156 8.19215C109.291 8.19215 110.352 9.27209 110.352 11.3703V21.5989H114.888V10.2903C114.888 6.89621 112.862 5.10659 109.136 5.10659C105.706 5.10659 103.399 6.58766 102.042 9.65778L101.715 9.53436C102.323 7.80645 102.541 6.52595 102.557 4.9986V0H98.0201V21.5989Z" fill="white"/>
<path d="M124.303 22C127.966 22 130.632 20.3801 131.614 17.6339L131.926 17.7111C131.333 20.7041 131.957 22 135.543 22C135.995 22 136.447 21.9537 136.821 21.892L137.351 19.223L136.572 19.2076C135.714 19.1921 135.465 18.9916 135.465 17.8962V10.4755C135.465 6.80365 133.002 5.04488 127.748 5.04488C122.167 5.04488 119.345 7.2202 119.579 10.9846L124.053 11.3548C123.866 8.87097 125.144 7.74474 127.654 7.74474C129.899 7.74474 130.959 8.56241 130.959 10.4292V11.3394L126.532 12.1417C122.104 12.9593 119.173 14.3478 119.173 17.7419V17.7882C119.173 20.4727 121.013 22 124.303 22ZM126.111 19.007C124.583 19.007 123.757 18.467 123.757 17.3562V17.3254C123.757 15.7363 125.207 15.0884 128.075 14.533L130.959 13.9776V14.7335C130.959 17.2174 128.699 19.007 126.111 19.007Z" fill="white"/>
<path d="M141.169 21.5989H145.705V14.8261C145.705 10.5989 147.03 9.04067 150.491 8.79383L152.721 8.62412L152.191 4.8906C148.527 5.1683 146.828 6.30996 145.144 9.67321L144.848 9.53436C145.581 7.37447 145.752 6.51052 145.721 5.39972H141.169V21.5989Z" fill="white"/>
<path d="M162.743 21.892C166.11 21.892 168.309 20.3492 169.415 17.5568L169.743 17.6648C169.213 19.3619 168.932 20.7041 168.917 21.5989H173.5V0H168.963V4.39691C168.963 6.09397 169.197 7.46704 169.758 9.3338L169.447 9.45722C168.34 6.68022 166.126 5.07574 162.743 5.07574C158.066 5.07574 155.603 7.89902 155.603 13.2987V13.6844C155.603 19.0687 158.066 21.892 162.743 21.892ZM164.458 19.115C161.652 19.115 160.186 17.3408 160.186 13.8387V13.129C160.186 9.6115 161.652 7.82188 164.458 7.82188C167.389 7.82188 168.963 9.70407 168.963 13.2062V13.7616C168.963 17.2482 167.389 19.115 164.458 19.115Z" fill="white"/>
</svg>
