<svg xmlns="http://www.w3.org/2000/svg" width="97" height="22" viewBox="0 0 97 22" fill="none">
  <path d="M1.56236 17.8031L0.163569 15.8232H1.17402L2.12414 17.2395L3.0818 15.8232H4.0847L2.68214 17.8031L4.15634 19.8708H3.15343L2.12414 18.3557L1.09861 19.8708H0.0957031L1.56236 17.8031Z" fill="white"/>
  <path d="M4.25437 15.8232H5.21957L6.06789 18.1178C6.19608 18.4447 6.28154 18.7521 6.32427 19.04H6.35444C6.37706 18.9058 6.41853 18.7436 6.47886 18.5533C6.53918 18.3606 6.8584 17.4505 7.43652 15.8232H8.39418L6.61082 20.4087C6.28657 21.2505 5.74616 21.6713 4.98958 21.6713C4.79352 21.6713 4.60249 21.6506 4.41649 21.6091V20.9284C4.54971 20.9577 4.70178 20.9723 4.8727 20.9723C5.3 20.9723 5.60037 20.732 5.77381 20.2514L5.92839 19.8708L4.25437 15.8232Z" fill="white"/>
  <path d="M13.0279 21.3017H12.2022V19.8708H9.3443V21.3017H8.52614V19.2047H8.86547C9.16207 18.7924 9.39709 18.2947 9.57052 17.7116C9.74647 17.126 9.85078 16.4966 9.88346 15.8232H12.4171V19.2047H13.0279V21.3017ZM11.5462 19.2047V16.4819H10.6488C10.6011 16.9845 10.5005 17.4798 10.3472 17.9678C10.1964 18.4557 10.0116 18.868 9.79297 19.2047H11.5462Z" fill="white"/>
  <path d="M17.4995 17.8397C17.4995 18.5008 17.3248 19.0169 16.9754 19.3877C16.626 19.7585 16.1397 19.944 15.5163 19.944C15.1267 19.944 14.7824 19.8586 14.4832 19.6878C14.1841 19.517 13.9541 19.2718 13.7933 18.9522C13.6324 18.6326 13.552 18.2617 13.552 17.8397C13.552 17.1834 13.7254 16.671 14.0723 16.3026C14.4192 15.9342 14.908 15.75 15.5389 15.75C16.1422 15.75 16.6198 15.9391 16.9717 16.3172C17.3236 16.693 17.4995 17.2004 17.4995 17.8397ZM14.4644 17.8397C14.4644 18.7741 14.8201 19.2413 15.5314 19.2413C16.2352 19.2413 16.5871 18.7741 16.5871 17.8397C16.5871 16.915 16.2327 16.4527 15.5239 16.4527C15.1519 16.4527 14.8816 16.5722 14.7132 16.8113C14.5473 17.0504 14.4644 17.3932 14.4644 17.8397Z" fill="white"/>
  <path d="M20.5761 17.7884V15.8232H21.4018V17.7884L23.0079 15.8232H23.943L22.3029 17.7811L24.09 19.8708H23.1135L21.4018 17.8177V19.8708H20.5761V17.8177L18.8681 19.8708H17.8954L19.6788 17.7811L18.0424 15.8232H18.9775L20.5761 17.7884Z" fill="white"/>
  <path d="M26.5558 19.944C25.9073 19.944 25.3996 19.761 25.0326 19.395C24.6681 19.0266 24.4859 18.5204 24.4859 17.8763C24.4859 17.2151 24.6556 16.6954 24.9949 16.3172C25.3342 15.9391 25.8005 15.75 26.3937 15.75C26.9442 15.75 27.379 15.9122 27.6982 16.2367C28.0174 16.5612 28.1771 17.0077 28.1771 17.5762V18.0409H25.3983C25.4109 18.4337 25.5202 18.7363 25.7263 18.9485C25.9325 19.1584 26.2228 19.2633 26.5973 19.2633C26.8436 19.2633 27.0724 19.2413 27.2835 19.1974C27.4971 19.151 27.7259 19.0754 27.9697 18.9705V19.6695C27.7535 19.7695 27.5348 19.8403 27.3137 19.8818C27.0925 19.9232 26.8398 19.944 26.5558 19.944ZM26.3937 16.4014C26.1122 16.4014 25.886 16.488 25.715 16.6613C25.5466 16.8345 25.4461 17.087 25.4134 17.4188H27.3061C27.3011 17.0846 27.2181 16.832 27.0573 16.6613C26.8964 16.488 26.6752 16.4014 26.3937 16.4014Z" fill="white"/>
  <path d="M30.8653 19.944C30.2344 19.944 29.7543 19.7659 29.425 19.4097C29.0983 19.051 28.9349 18.5374 28.9349 17.8689C28.9349 17.1882 29.1058 16.6649 29.4477 16.2989C29.792 15.933 30.2884 15.75 30.9369 15.75C31.3768 15.75 31.7727 15.8293 32.1246 15.9879L31.8569 16.6796C31.4824 16.538 31.1732 16.4673 30.9294 16.4673C30.208 16.4673 29.8473 16.9321 29.8473 17.8616C29.8473 18.3154 29.9365 18.657 30.115 18.8863C30.296 19.1132 30.5599 19.2267 30.9068 19.2267C31.3014 19.2267 31.6747 19.1315 32.0266 18.9412V19.6915C31.8682 19.7817 31.6985 19.8464 31.5176 19.8854C31.3391 19.9244 31.1217 19.944 30.8653 19.944Z" fill="white"/>
  <path d="M36.14 15.8232V16.4966H34.7827V19.8708H33.8929V16.4966H32.5355V15.8232H36.14Z" fill="white"/>
  <path d="M40.5626 16.8589C40.5626 17.3371 40.2748 17.6262 39.6992 17.7262V17.7555C40.0209 17.7921 40.2672 17.8909 40.4381 18.0519C40.6091 18.2129 40.6945 18.4215 40.6945 18.6777C40.6945 19.0608 40.5437 19.356 40.2421 19.5634C39.943 19.7683 39.5069 19.8708 38.9338 19.8708H36.9431V15.8232H38.9262C40.0171 15.8232 40.5626 16.1684 40.5626 16.8589ZM39.7859 18.6265C39.7859 18.4313 39.708 18.2935 39.5521 18.2129C39.3963 18.13 39.1625 18.0885 38.8508 18.0885H37.8291V19.234H38.8735C39.4817 19.234 39.7859 19.0315 39.7859 18.6265ZM39.6765 16.9321C39.6765 16.771 39.6112 16.6552 39.4805 16.5844C39.3523 16.5112 39.16 16.4746 38.9036 16.4746H37.8291V17.4481H38.7717C39.0683 17.4481 39.2932 17.4115 39.4465 17.3383C39.5999 17.2627 39.6765 17.1273 39.6765 16.9321Z" fill="white"/>
  <path d="M43.4318 19.944C42.7833 19.944 42.2755 19.761 41.9086 19.395C41.5441 19.0266 41.3619 18.5204 41.3619 17.8763C41.3619 17.2151 41.5315 16.6954 41.8709 16.3172C42.2102 15.9391 42.6765 15.75 43.2697 15.75C43.8201 15.75 44.255 15.9122 44.5742 16.2367C44.8934 16.5612 45.053 17.0077 45.053 17.5762V18.0409H42.2743C42.2869 18.4337 42.3962 18.7363 42.6023 18.9485C42.8084 19.1584 43.0987 19.2633 43.4732 19.2633C43.7196 19.2633 43.9483 19.2413 44.1595 19.1974C44.3731 19.151 44.6018 19.0754 44.8456 18.9705V19.6695C44.6295 19.7695 44.4108 19.8403 44.1896 19.8818C43.9684 19.9232 43.7158 19.944 43.4318 19.944ZM43.2697 16.4014C42.9881 16.4014 42.7619 16.488 42.591 16.6613C42.4226 16.8345 42.322 17.087 42.2894 17.4188H44.1821C44.177 17.0846 44.0941 16.832 43.9332 16.6613C43.7724 16.488 43.5512 16.4014 43.2697 16.4014Z" fill="white"/>
  <path d="M46.9457 15.8232V17.4481H48.9101V15.8232H49.7961V19.8708H48.9101V18.1251H46.9457V19.8708H46.0597V15.8232H46.9457Z" fill="white"/>
  <path d="M51.9527 15.8232V17.4481H53.917V15.8232H54.8031V19.8708H53.917V18.1251H51.9527V19.8708H51.0667V15.8232H51.9527Z" fill="white"/>
  <path d="M58.6827 19.8708L58.5055 19.3072H58.4754C58.2743 19.5536 58.0719 19.7219 57.8683 19.8122C57.6647 19.9001 57.4033 19.944 57.0841 19.944C56.6744 19.944 56.3539 19.8366 56.1227 19.6219C55.8939 19.4072 55.7796 19.1035 55.7796 18.7107C55.7796 18.2935 55.9392 17.9787 56.2584 17.7665C56.5776 17.5542 57.064 17.4383 57.7175 17.4188L58.4377 17.3968V17.1809C58.4377 16.9223 58.3748 16.7296 58.2491 16.6027C58.126 16.4734 57.9337 16.4087 57.6723 16.4087C57.4586 16.4087 57.2538 16.4392 57.0577 16.5002C56.8617 16.5612 56.6731 16.6332 56.4922 16.7161L56.2056 16.1013C56.4318 15.9867 56.6794 15.9 56.9484 15.8415C57.2173 15.7805 57.4712 15.75 57.71 15.75C58.2403 15.75 58.64 15.8622 58.9089 16.0867C59.1804 16.3111 59.3161 16.6637 59.3161 17.1443V19.8708H58.6827ZM57.3631 19.2852C57.6848 19.2852 57.9425 19.1986 58.136 19.0254C58.3321 18.8497 58.4301 18.6045 58.4301 18.2898V17.9385L57.8947 17.9604C57.4775 17.9751 57.1733 18.0434 56.9823 18.1654C56.7938 18.2849 56.6995 18.4691 56.6995 18.718C56.6995 18.8985 56.7548 19.0388 56.8654 19.1388C56.976 19.2364 57.1419 19.2852 57.3631 19.2852Z" fill="white"/>
  <path d="M60.9789 19.8708H59.9873L61.1485 18.2129C60.867 18.1349 60.6458 17.9958 60.4849 17.7957C60.3241 17.5932 60.2436 17.3432 60.2436 17.0455C60.2436 16.6625 60.3844 16.3636 60.6659 16.1489C60.9474 15.9318 61.332 15.8232 61.8196 15.8232H63.7199V19.8708H62.8301V18.3118H61.9893L60.9789 19.8708ZM61.107 17.0528C61.107 17.2602 61.1875 17.4164 61.3483 17.5213C61.5117 17.6237 61.7304 17.675 62.0044 17.675H62.8301V16.4746H61.8649C61.6236 16.4746 61.4363 16.5246 61.3031 16.6247C61.1724 16.7247 61.107 16.8674 61.107 17.0528Z" fill="white"/>
  <path d="M69.6883 15.8232V16.4966H67.8785V19.8708H66.9925V15.8232H69.6883Z" fill="white"/>
  <path d="M73.1004 19.8708L72.9232 19.3072H72.8931C72.692 19.5536 72.4896 19.7219 72.286 19.8122C72.0824 19.9001 71.821 19.944 71.5018 19.944C71.0921 19.944 70.7716 19.8366 70.5404 19.6219C70.3117 19.4072 70.1973 19.1035 70.1973 18.7107C70.1973 18.2935 70.3569 17.9787 70.6761 17.7665C70.9953 17.5542 71.4817 17.4383 72.1352 17.4188L72.8554 17.3968V17.1809C72.8554 16.9223 72.7925 16.7296 72.6668 16.6027C72.5437 16.4734 72.3514 16.4087 72.09 16.4087C71.8763 16.4087 71.6715 16.4392 71.4754 16.5002C71.2794 16.5612 71.0909 16.6332 70.9099 16.7161L70.6233 16.1013C70.8496 15.9867 71.0971 15.9 71.3661 15.8415C71.635 15.7805 71.8889 15.75 72.1277 15.75C72.6581 15.75 73.0577 15.8622 73.3267 16.0867C73.5981 16.3111 73.7338 16.6637 73.7338 17.1443V19.8708H73.1004ZM71.7808 19.2852C72.1026 19.2852 72.3602 19.1986 72.5537 19.0254C72.7498 18.8497 72.8478 18.6045 72.8478 18.2898V17.9385L72.3124 17.9604C71.8952 17.9751 71.591 18.0434 71.4 18.1654C71.2115 18.2849 71.1172 18.4691 71.1172 18.718C71.1172 18.8985 71.1725 19.0388 71.2831 19.1388C71.3937 19.2364 71.5596 19.2852 71.7808 19.2852Z" fill="white"/>
  <path d="M78.3977 19.8708H77.5042V16.4966H76.3542C76.2838 17.3651 76.1883 18.0434 76.0677 18.5313C75.9495 19.0193 75.7937 19.3755 75.6002 19.6C75.4091 19.8244 75.1603 19.9366 74.8536 19.9366C74.6601 19.9366 74.498 19.9098 74.3673 19.8561V19.1828C74.4603 19.2169 74.5533 19.234 74.6463 19.234C74.9026 19.234 75.1037 18.9546 75.2495 18.3959C75.3978 17.8348 75.5134 16.9772 75.5964 15.8232H78.3977V19.8708Z" fill="white"/>
  <path d="M81.4894 19.944C80.8409 19.944 80.3332 19.761 79.9662 19.395C79.6017 19.0266 79.4195 18.5204 79.4195 17.8763C79.4195 17.2151 79.5891 16.6954 79.9285 16.3172C80.2678 15.9391 80.7341 15.75 81.3273 15.75C81.8777 15.75 82.3126 15.9122 82.6318 16.2367C82.951 16.5612 83.1106 17.0077 83.1106 17.5762V18.0409H80.3319C80.3445 18.4337 80.4538 18.7363 80.6599 18.9485C80.866 19.1584 81.1563 19.2633 81.5309 19.2633C81.7772 19.2633 82.0059 19.2413 82.2171 19.1974C82.4307 19.151 82.6595 19.0754 82.9033 18.9705V19.6695C82.6871 19.7695 82.4684 19.8403 82.2472 19.8818C82.026 19.9232 81.7734 19.944 81.4894 19.944ZM81.3273 16.4014C81.0458 16.4014 80.8195 16.488 80.6486 16.6613C80.4802 16.8345 80.3797 17.087 80.347 17.4188H82.2397C82.2347 17.0846 82.1517 16.832 81.9908 16.6613C81.83 16.488 81.6088 16.4014 81.3273 16.4014Z" fill="white"/>
  <path d="M86.2325 19.944C85.7046 19.944 85.2949 19.7598 85.0033 19.3914H84.9505C84.9857 19.7329 85.0033 19.9403 85.0033 20.0135V21.6713H84.1173V15.8232H84.8337C84.8538 15.8988 84.8953 16.0794 84.9581 16.3648H85.0033C85.2798 15.9549 85.6946 15.75 86.2475 15.75C86.7678 15.75 87.1725 15.933 87.4616 16.2989C87.7532 16.6649 87.8989 17.1785 87.8989 17.8397C87.8989 18.5008 87.7506 19.0169 87.454 19.3877C87.16 19.7585 86.7528 19.944 86.2325 19.944ZM86.0175 16.4527C85.6657 16.4527 85.408 16.5527 85.2446 16.7527C85.0838 16.9528 85.0033 17.2724 85.0033 17.7116V17.8397C85.0033 18.3325 85.0838 18.6899 85.2446 18.9119C85.4055 19.1315 85.6682 19.2413 86.0326 19.2413C86.3393 19.2413 86.5756 19.1193 86.7414 18.8753C86.9073 18.6314 86.9903 18.2837 86.9903 17.8323C86.9903 17.3785 86.9073 17.0358 86.7414 16.804C86.5781 16.5698 86.3368 16.4527 86.0175 16.4527Z" fill="white"/>
  <path d="M90.7493 19.944C90.1008 19.944 89.5931 19.761 89.2261 19.395C88.8616 19.0266 88.6794 18.5204 88.6794 17.8763C88.6794 17.2151 88.8491 16.6954 89.1884 16.3172C89.5277 15.9391 89.994 15.75 90.5872 15.75C91.1377 15.75 91.5725 15.9122 91.8917 16.2367C92.2109 16.5612 92.3706 17.0077 92.3706 17.5762V18.0409H89.5918C89.6044 18.4337 89.7137 18.7363 89.9198 18.9485C90.126 19.1584 90.4163 19.2633 90.7908 19.2633C91.0371 19.2633 91.2658 19.2413 91.477 19.1974C91.6906 19.151 91.9194 19.0754 92.1632 18.9705V19.6695C91.947 19.7695 91.7283 19.8403 91.5071 19.8818C91.2859 19.9232 91.0333 19.944 90.7493 19.944ZM90.5872 16.4014C90.3057 16.4014 90.0795 16.488 89.9085 16.6613C89.7401 16.8345 89.6396 17.087 89.6069 17.4188H91.4996C91.4946 17.0846 91.4116 16.832 91.2508 16.6613C91.0899 16.488 90.8687 16.4014 90.5872 16.4014Z" fill="white"/>
  <path d="M93.8033 19.8708H92.8117L93.9729 18.2129C93.6914 18.1349 93.4702 17.9958 93.3094 17.7957C93.1485 17.5932 93.0681 17.3432 93.0681 17.0455C93.0681 16.6625 93.2088 16.3636 93.4903 16.1489C93.7719 15.9318 94.1564 15.8232 94.6441 15.8232H96.5443V19.8708H95.6545V18.3118H94.8137L93.8033 19.8708ZM93.9315 17.0528C93.9315 17.2602 94.0119 17.4164 94.1728 17.5213C94.3361 17.6237 94.5548 17.675 94.8288 17.675H95.6545V16.4746H94.6893C94.448 16.4746 94.2607 16.5246 94.1275 16.6247C93.9968 16.7247 93.9315 16.8674 93.9315 17.0528Z" fill="white"/>
  <path d="M0 11.7307H6.52484C9.09814 11.7307 10.4153 10.5995 10.4153 8.44607V8.41256C10.4153 6.81216 9.5779 5.84019 7.96414 5.56368V5.41286C9.31621 5.16149 10.0228 4.30683 10.0228 2.91591V2.87401C10.0228 0.980348 8.79283 0 6.38527 0H0V11.7307ZM2.5733 4.80119V1.65905H5.61764C6.84759 1.65905 7.4582 2.17855 7.4582 3.20079V3.23431C7.4582 4.27331 6.84759 4.80119 5.61764 4.80119H2.5733ZM2.5733 10.0632V6.32618H5.69615C7.04822 6.32618 7.7199 6.94623 7.7199 8.16119V8.1947C7.7199 9.4348 7.04822 10.0632 5.69615 10.0632H2.5733Z" fill="white"/>
  <path d="M12.8393 0V11.7307H15.3777V0H12.8393Z" fill="white"/>
  <path d="M20.689 11.9485C22.7389 11.9485 24.2305 11.0687 24.7801 9.57724L24.9545 9.61914C24.6231 11.2447 24.972 11.9485 26.9783 11.9485C27.2313 11.9485 27.4842 11.9234 27.6936 11.8899L27.9902 10.4403L27.554 10.4319C27.0742 10.4235 26.9347 10.3146 26.9347 9.71969V5.68937C26.9347 3.69516 25.5564 2.73995 22.6168 2.73995C19.4939 2.73995 17.915 3.92139 18.0459 5.96588L20.5494 6.16697C20.4447 4.81795 21.16 4.20628 22.5644 4.20628C23.8205 4.20628 24.4137 4.65037 24.4137 5.66423V6.1586L21.9364 6.59431C19.459 7.03839 17.8191 7.79251 17.8191 9.6359V9.66104C17.8191 11.119 18.8484 11.9485 20.689 11.9485ZM21.7008 10.323C20.846 10.323 20.3837 10.0297 20.3837 9.42642V9.40966C20.3837 8.54662 21.1949 8.1947 22.7999 7.89306L24.4137 7.59141V8.00198C24.4137 9.35101 23.1489 10.323 21.7008 10.323Z" fill="white"/>
  <path d="M30.1263 11.7307H32.6647V7.64169C32.6647 5.66423 33.6329 4.44089 35.238 4.44089C36.433 4.44089 37.0262 5.0358 37.0262 6.17535V11.7307H39.5646V5.58882C39.5646 3.74543 38.4393 2.77346 36.3458 2.77346C34.4442 2.77346 33.1444 3.57785 32.3768 5.25366L32.2023 5.17825C32.5513 4.18114 32.6734 3.58623 32.6734 2.93266H30.1263V11.7307Z" fill="white"/>
  <path d="M47.1177 11.9401C50.1097 11.9401 51.7845 10.7838 52.0375 8.54662L49.4729 8.27011C49.3683 9.67779 48.5657 10.39 47.1264 10.39C45.5127 10.39 44.6753 9.41804 44.6753 7.49924V7.08867C44.6753 5.21176 45.5214 4.26493 47.1003 4.26493C48.557 4.26493 49.3159 5.04418 49.4293 6.60268L51.959 6.32618C51.7584 3.95491 50.1446 2.72319 47.109 2.72319C43.8117 2.72319 42.0758 4.27331 42.0758 7.23949V7.34842C42.0758 10.3649 43.7942 11.9401 47.1177 11.9401Z" fill="white"/>
  <path d="M54.5661 11.7307H57.1045V7.64169C57.1045 5.66423 58.0641 4.44927 59.6778 4.44927C60.8729 4.44927 61.4661 5.0358 61.4661 6.17535V11.7307H64.0045V5.58882C64.0045 3.74543 62.8705 2.77346 60.7857 2.77346C58.8666 2.77346 57.5756 3.57785 56.8167 5.24528L56.6335 5.17825C56.9737 4.2398 57.0958 3.54433 57.1045 2.71481V0H54.5661V11.7307Z" fill="white"/>
  <path d="M69.2722 11.9485C71.3221 11.9485 72.8137 11.0687 73.3633 9.57724L73.5377 9.61914C73.2063 11.2447 73.5552 11.9485 75.5615 11.9485C75.8144 11.9485 76.0674 11.9234 76.2768 11.8899L76.5733 10.4403L76.1372 10.4319C75.6574 10.4235 75.5179 10.3146 75.5179 9.71969V5.68937C75.5179 3.69516 74.1396 2.73995 71.1999 2.73995C68.0771 2.73995 66.4982 3.92139 66.6291 5.96588L69.1326 6.16697C69.0279 4.81795 69.7432 4.20628 71.1476 4.20628C72.4037 4.20628 72.9969 4.65037 72.9969 5.66423V6.1586L70.5196 6.59431C68.0422 7.03839 66.4023 7.79251 66.4023 9.6359V9.66104C66.4023 11.119 67.4316 11.9485 69.2722 11.9485ZM70.284 10.323C69.4292 10.323 68.9669 10.0297 68.9669 9.42642V9.40966C68.9669 8.54662 69.7781 8.1947 71.3831 7.89306L72.9969 7.59141V8.00198C72.9969 9.35101 71.7321 10.323 70.284 10.323Z" fill="white"/>
  <path d="M78.7094 11.7307H81.2478V8.05226C81.2478 5.7564 81.9893 4.91012 83.9258 4.77605L85.1732 4.68388L84.8766 2.65616C82.8267 2.80698 81.8759 3.42703 80.9338 5.25366L80.7681 5.17825C81.1781 4.00518 81.274 3.53596 81.2566 2.93266H78.7094V11.7307Z" fill="white"/>
  <path d="M90.7811 11.8899C92.6653 11.8899 93.8952 11.052 94.5145 9.53535L94.6977 9.594C94.4012 10.5157 94.2441 11.2447 94.2354 11.7307H96.8V0H94.2616V2.38803C94.2616 3.30972 94.3924 4.05546 94.7065 5.06932L94.532 5.13635C93.9127 3.62812 92.674 2.7567 90.7811 2.7567C88.1642 2.7567 86.7859 4.29007 86.7859 7.22273V7.43221C86.7859 10.3565 88.1642 11.8899 90.7811 11.8899ZM91.7406 10.3816C90.1705 10.3816 89.3505 9.41804 89.3505 7.516V7.13056C89.3505 5.22014 90.1705 4.24817 91.7406 4.24817C93.3806 4.24817 94.2616 5.27042 94.2616 7.17246V7.47411C94.2616 9.36777 93.3806 10.3816 91.7406 10.3816Z" fill="white"/>
</svg>