<svg width="35.000000" height="35.000000" viewBox="0 0 35 35" fill="none" xmlns="http://www.w3.org/2000/svg" xmlns:xlink="http://www.w3.org/1999/xlink">
	<desc>
			Created with Pixso.
	</desc>
	<defs/>
	<path id="fb" d="M16.5 -0.5C6.87 -0.5 -1 7.38 -1 17.1C-1 25.89 5.4 33.18 13.77 34.5L13.77 22.2L9.32 22.2L9.32 17.1L13.77 17.1L13.77 13.22C13.77 8.81 16.37 6.38 20.38 6.38C22.29 6.38 24.28 6.72 24.28 6.72L24.28 11.06L22.08 11.06C19.91 11.06 19.23 12.41 19.23 13.8L19.23 17.1L24.09 17.1L23.3 22.2L19.23 22.2L19.23 34.5C23.35 33.84 27.1 31.73 29.81 28.54C32.52 25.35 34 21.29 34 17.1C34 7.38 26.12 -0.5 16.5 -0.5Z" fill="#757575" fill-opacity="1.000000" fill-rule="nonzero"/>
</svg>
