<svg width="35.000000" height="35.000000" viewBox="0 0 35 35" fill="none" xmlns="http://www.w3.org/2000/svg" xmlns:xlink="http://www.w3.org/1999/xlink">
	<desc>
			Created with Pixso.
	</desc>
	<defs>
		<clipPath id="clip1_151">
			<rect id="instagram" width="35.000000" height="35.000000" transform="matrix(-1 0 0 1 34.0001 -0.5)" fill="white" fill-opacity="0"/>
		</clipPath>
	</defs>
	<rect id="instagram" width="35.000000" height="35.000000" transform="matrix(-1 0 0 1 34.0001 -0.5)" fill="#FFFFFF" fill-opacity="0"/>
	<g clip-path="url(#clip1_151)">
		<path id="Vector" d="M13.15 17C13.15 18.85 14.65 20.34 16.5 20.34C18.35 20.34 19.84 18.85 19.84 17C19.84 15.15 18.35 13.65 16.5 13.65C14.65 13.65 13.15 15.15 13.15 17Z" fill="#757575" fill-opacity="1.000000" fill-rule="nonzero"/>
		<path id="Vector" d="M8.66 11.07C8.82 10.63 9.08 10.24 9.41 9.91C9.74 9.58 10.13 9.32 10.57 9.16C10.92 9.02 11.45 8.86 12.43 8.82C13.49 8.77 13.81 8.76 16.5 8.76C19.18 8.76 19.5 8.77 20.56 8.82C21.54 8.86 22.07 9.02 22.42 9.16C22.86 9.32 23.25 9.58 23.58 9.91C23.91 10.24 24.17 10.63 24.33 11.07C24.47 11.42 24.63 11.95 24.67 12.93C24.72 13.99 24.73 14.31 24.73 17C24.73 19.68 24.72 20 24.67 21.06C24.63 22.04 24.47 22.57 24.33 22.92C24.17 23.36 23.91 23.75 23.58 24.08C23.25 24.41 22.86 24.67 22.42 24.83C22.07 24.97 21.54 25.13 20.56 25.17C19.5 25.22 19.18 25.23 16.5 25.23C13.81 25.23 13.49 25.22 12.43 25.17C11.45 25.13 10.92 24.97 10.57 24.83C9.69 24.49 9 23.8 8.66 22.92C8.52 22.57 8.36 22.04 8.32 21.06C8.27 20 8.26 19.68 8.26 17C8.26 14.31 8.27 13.99 8.32 12.93C8.36 11.95 8.52 11.42 8.66 11.07ZM16.5 22.15C19.35 22.15 21.66 19.84 21.66 16.99C21.66 14.14 19.35 11.83 16.5 11.83C13.65 11.83 11.34 14.14 11.34 16.99C11.34 19.84 13.65 22.15 16.5 22.15ZM11.13 12.84C11.8 12.84 12.34 12.3 12.34 11.63C12.34 10.96 11.8 10.42 11.13 10.42C10.47 10.42 9.93 10.96 9.93 11.63C9.93 12.3 10.47 12.84 11.13 12.84Z" fill="#757575" fill-opacity="1.000000" fill-rule="nonzero"/>
		<path id="Vector" d="M16.5 -0.5C26.16 -0.5 34 7.33 34 17C34 26.66 26.16 34.5 16.5 34.5C6.83 34.5 -1 26.66 -1 17C-1 7.33 6.83 -0.5 16.5 -0.5ZM6.51 21.14C6.56 22.21 6.73 22.94 6.97 23.58C7.5 24.93 8.56 25.99 9.91 26.52C10.55 26.76 11.28 26.93 12.35 26.98C13.42 27.03 13.77 27.04 16.49 27.04C19.22 27.04 19.57 27.03 20.64 26.98C21.71 26.93 22.44 26.76 23.08 26.52C23.75 26.26 24.36 25.87 24.86 25.36C25.37 24.86 25.76 24.25 26.02 23.58C26.26 22.94 26.43 22.21 26.48 21.14C26.53 20.07 26.54 19.72 26.54 17C26.54 14.27 26.53 13.92 26.48 12.85C26.43 11.78 26.26 11.05 26.02 10.41C25.76 9.74 25.37 9.13 24.86 8.63C24.36 8.12 23.75 7.73 23.08 7.47C22.44 7.23 21.71 7.06 20.64 7.01C19.57 6.96 19.22 6.95 16.5 6.95C13.77 6.95 13.42 6.96 12.35 7.01C11.28 7.06 10.55 7.23 9.91 7.47C9.24 7.73 8.63 8.12 8.13 8.63C7.62 9.14 7.23 9.74 6.97 10.41C6.73 11.05 6.56 11.78 6.51 12.85C6.46 13.92 6.45 14.27 6.45 17C6.45 19.72 6.46 20.07 6.51 21.14Z" fill="#757575" fill-opacity="1.000000" fill-rule="nonzero"/>
	</g>
</svg>
