<svg width="36.000000" height="35.000000" viewBox="0 0 36 35" fill="none" xmlns="http://www.w3.org/2000/svg" xmlns:xlink="http://www.w3.org/1999/xlink">
	<desc>
			Created with Pixso.
	</desc>
	<defs/>
	<path id="Vector" d="M17.5 -0.5C7.83 -0.5 0 7.33 0 17C0 26.66 7.83 34.5 17.5 34.5C27.16 34.5 35 26.66 35 17C35 7.33 27.16 -0.5 17.5 -0.5ZM26.37 18.89C27.19 19.68 28.05 20.43 28.78 21.31C29.11 21.7 29.41 22.1 29.65 22.56C29.98 23.2 29.68 23.91 29.1 23.95L25.52 23.95C24.59 24.02 23.85 23.65 23.23 23.02C22.74 22.51 22.28 21.97 21.8 21.45C21.6 21.24 21.4 21.04 21.15 20.88C20.66 20.56 20.24 20.66 19.96 21.17C19.67 21.69 19.61 22.26 19.58 22.84C19.54 23.69 19.29 23.91 18.44 23.95C16.63 24.03 14.91 23.76 13.31 22.84C11.9 22.04 10.81 20.9 9.86 19.61C8 17.1 6.59 14.34 5.31 11.51C5.02 10.87 5.23 10.53 5.94 10.52C7.11 10.49 8.28 10.5 9.45 10.52C9.93 10.52 10.24 10.8 10.42 11.25C11.06 12.8 11.83 14.28 12.8 15.65C13.06 16.02 13.33 16.38 13.7 16.64C14.12 16.93 14.43 16.83 14.63 16.37C14.75 16.07 14.81 15.76 14.84 15.44C14.93 14.36 14.94 13.28 14.78 12.2C14.68 11.53 14.3 11.09 13.63 10.97C13.29 10.9 13.34 10.77 13.5 10.58C13.79 10.24 14.06 10.03 14.6 10.03L18.65 10.03C19.29 10.16 19.44 10.44 19.52 11.09L19.53 15.59C19.52 15.84 19.65 16.57 20.1 16.74C20.46 16.86 20.69 16.57 20.91 16.34C21.88 15.31 22.57 14.09 23.19 12.83C23.46 12.28 23.7 11.7 23.93 11.13C24.1 10.7 24.36 10.49 24.84 10.5L28.74 10.51C28.86 10.51 28.98 10.51 29.09 10.53C29.75 10.64 29.93 10.92 29.72 11.56C29.4 12.57 28.78 13.41 28.17 14.25C27.52 15.15 26.83 16.02 26.18 16.93C25.59 17.75 25.64 18.17 26.37 18.89Z" fill="#757575" fill-opacity="1.000000" fill-rule="nonzero"/>
</svg>
