<svg width="115.000000" height="25.000000" viewBox="0 0 115 25" fill="none" xmlns="http://www.w3.org/2000/svg" xmlns:xlink="http://www.w3.org/1999/xlink">
	<desc>
			Created with Pixso.
	</desc>
	<defs/>
	<path id="художественная галерея" d="M20.6 20.24C20.6 21.02 20.4 21.63 19.99 22.07Q19.86 22.2 19.72 22.3L19.72 22.3Q19.15 22.72 18.27 22.72C17.81 22.72 17.4 22.62 17.05 22.42C16.7 22.22 16.43 21.93 16.24 21.55Q15.95 20.99 15.95 20.24C15.95 19.47 16.16 18.87 16.57 18.43Q16.67 18.32 16.79 18.23Q17.37 17.78 18.29 17.78C19 17.78 19.57 18.01 19.98 18.45C20.4 18.89 20.6 19.49 20.6 20.24ZM31.27 22.72C30.5 22.72 29.91 22.51 29.47 22.08C29.05 21.64 28.83 21.05 28.83 20.29C28.83 19.51 29.03 18.9 29.43 18.45C29.83 18.01 30.38 17.78 31.08 17.78C31.73 17.78 32.24 17.97 32.61 18.36C32.99 18.74 33.18 19.26 33.18 19.93L33.18 20.48L29.91 20.48C29.92 20.94 30.05 21.3 30.29 21.55C30.53 21.8 30.88 21.92 31.32 21.92C31.61 21.92 31.88 21.89 32.13 21.84C32.38 21.79 32.65 21.7 32.93 21.58L32.93 22.4Q32.55 22.58 32.16 22.65C31.9 22.7 31.6 22.72 31.27 22.72ZM36.34 22.72C35.6 22.72 35.03 22.51 34.65 22.09C34.26 21.67 34.07 21.07 34.07 20.28C34.07 19.48 34.27 18.86 34.67 18.43C35.08 18 35.66 17.78 36.43 17.78C36.95 17.78 37.41 17.88 37.83 18.06L37.51 18.88C37.07 18.71 36.71 18.63 36.42 18.63C35.57 18.63 35.14 19.17 35.14 20.27C35.14 20.8 35.25 21.21 35.46 21.48Q35.55 21.59 35.66 21.66Q35.95 21.88 36.39 21.88C36.86 21.88 37.3 21.77 37.71 21.54L37.71 22.42C37.52 22.53 37.32 22.61 37.11 22.65C36.9 22.7 36.65 22.72 36.34 22.72ZM51.14 22.72C50.38 22.72 49.78 22.51 49.35 22.08C48.92 21.64 48.71 21.05 48.71 20.29C48.71 19.51 48.9 18.9 49.3 18.45C49.7 18.01 50.25 17.78 50.95 17.78C51.6 17.78 52.11 17.97 52.49 18.36C52.86 18.74 53.05 19.26 53.05 19.93L53.05 20.48L49.78 20.48C49.79 20.94 49.92 21.3 50.17 21.55C50.41 21.8 50.75 21.92 51.19 21.92C51.48 21.92 51.75 21.89 52 21.84C52.25 21.79 52.52 21.7 52.81 21.58L52.81 22.4C52.55 22.52 52.3 22.6 52.04 22.65C51.77 22.7 51.48 22.72 51.14 22.72ZM69.1 22.64L68.89 21.97L68.86 21.97C68.62 22.26 68.38 22.46 68.14 22.57Q67.78 22.72 67.22 22.72C66.74 22.72 66.36 22.6 66.09 22.34C65.82 22.09 65.68 21.73 65.68 21.27C65.68 20.78 65.87 20.41 66.25 20.16C66.62 19.91 67.2 19.77 67.97 19.75L68.81 19.72L68.81 19.47Q68.81 19.01 68.59 18.79Q68.38 18.56 67.91 18.56C67.66 18.56 67.42 18.59 67.19 18.67C66.96 18.74 66.74 18.82 66.52 18.92L66.19 18.2C66.45 18.06 66.74 17.96 67.06 17.89C67.38 17.82 67.68 17.78 67.96 17.78C68.58 17.78 69.05 17.91 69.37 18.18Q69.43 18.23 69.48 18.28Q69.85 18.67 69.85 19.42L69.85 22.64L69.1 22.64ZM86.08 22.64L85.87 21.97L85.84 21.97C85.6 22.26 85.36 22.46 85.12 22.57C84.88 22.67 84.58 22.72 84.2 22.72C83.72 22.72 83.34 22.6 83.07 22.34C82.8 22.09 82.66 21.73 82.66 21.27C82.66 20.78 82.85 20.41 83.23 20.16C83.6 19.91 84.18 19.77 84.95 19.75L85.79 19.72L85.79 19.47Q85.79 19.01 85.57 18.79C85.43 18.63 85.2 18.56 84.89 18.56C84.64 18.56 84.4 18.59 84.17 18.67C83.94 18.74 83.72 18.82 83.5 18.92L83.17 18.2C83.43 18.06 83.72 17.96 84.04 17.89C84.36 17.82 84.66 17.78 84.94 17.78C85.56 17.78 86.03 17.91 86.35 18.18Q86.41 18.23 86.45 18.28Q86.83 18.67 86.83 19.42L86.83 22.64L86.08 22.64ZM95.96 22.72C95.2 22.72 94.6 22.51 94.17 22.08C93.74 21.64 93.53 21.05 93.53 20.29C93.53 19.51 93.72 18.9 94.12 18.45C94.52 18.01 95.07 17.78 95.77 17.78C96.42 17.78 96.93 17.97 97.31 18.36Q97.39 18.44 97.46 18.53L97.46 18.53Q97.87 19.07 97.87 19.93L97.87 20.48L94.6 20.48Q94.62 21.16 94.97 21.53Q94.98 21.54 94.99 21.55C95.23 21.8 95.57 21.92 96.01 21.92C96.3 21.92 96.57 21.89 96.82 21.84C97.07 21.79 97.34 21.7 97.63 21.58L97.63 22.4C97.37 22.52 97.12 22.6 96.86 22.65C96.59 22.7 96.3 22.72 95.96 22.72ZM101.55 22.72C100.93 22.72 100.44 22.51 100.1 22.07L100.04 22.07C100.08 22.47 100.1 22.72 100.1 22.8L100.1 24.76L99.06 24.76L99.06 17.87L99.9 17.87C99.92 17.96 99.97 18.17 100.05 18.51L100.1 18.51Q100.28 18.24 100.54 18.07L100.54 18.07Q100.96 17.78 101.57 17.78C102.18 17.78 102.66 18 103 18.43C103.34 18.86 103.51 19.46 103.51 20.24C103.51 21.02 103.34 21.63 102.99 22.07C102.64 22.5 102.16 22.72 101.55 22.72ZM106.87 22.72C106.1 22.72 105.51 22.51 105.07 22.08C104.65 21.64 104.43 21.05 104.43 20.29C104.43 19.51 104.63 18.9 105.03 18.45C105.43 18.01 105.98 17.78 106.68 17.78C107.33 17.78 107.84 17.97 108.21 18.36C108.59 18.74 108.78 19.26 108.78 19.93L108.78 20.48L105.51 20.48C105.52 20.94 105.65 21.3 105.89 21.55C106.13 21.8 106.48 21.92 106.92 21.92C107.21 21.92 107.48 21.89 107.73 21.84C107.98 21.79 108.25 21.7 108.53 21.58L108.53 22.4C108.28 22.52 108.02 22.6 107.76 22.65C107.5 22.7 107.2 22.72 106.87 22.72ZM1.83 20.2L0.19 17.87L1.38 17.87L2.5 19.54L3.62 17.87L4.8 17.87L3.15 20.2L4.89 22.64L3.71 22.64L2.5 20.85L1.29 22.64L0.11 22.64L1.83 20.2ZM5 17.87L6.14 17.87L7.14 20.57C7.29 20.96 7.39 21.32 7.44 21.66L7.48 21.66C7.5 21.5 7.55 21.31 7.62 21.08C7.69 20.86 8.07 19.79 8.75 17.87L9.88 17.87L7.78 23.27C7.4 24.26 6.76 24.76 5.87 24.76C5.64 24.76 5.41 24.73 5.19 24.68L5.19 23.88Q5.43 23.93 5.73 23.93Q6.01 23.93 6.23 23.82Q6.6 23.62 6.79 23.08L6.98 22.64L5 17.87ZM15.34 24.32L14.36 24.32L14.36 22.64L11 22.64L11 24.32L10.03 24.32L10.03 21.85L10.43 21.85Q10.96 21.12 11.26 20.09C11.47 19.4 11.59 18.66 11.63 17.87L14.62 17.87L14.62 21.85L15.34 21.85L15.34 24.32ZM24.23 20.18L24.23 17.87L25.2 17.87L25.2 20.18L27.09 17.87L28.19 17.87L26.26 20.17L28.36 22.64L27.21 22.64L25.2 20.22L25.2 22.64L24.23 22.64L24.23 20.22L22.21 22.64L21.07 22.64L23.17 20.17L21.24 17.87L22.34 17.87L24.23 20.18ZM42.56 17.87L42.56 18.66L40.96 18.66L40.96 22.64L39.91 22.64L39.91 18.66L38.31 18.66L38.31 17.87L42.56 17.87ZM47.76 19.09C47.76 19.65 47.42 19.99 46.75 20.11L46.75 20.14Q47.32 20.21 47.62 20.49C47.82 20.68 47.92 20.93 47.92 21.23C47.92 21.68 47.74 22.03 47.39 22.27C47.03 22.52 46.52 22.64 45.85 22.64L43.5 22.64L43.5 17.87L45.84 17.87C47.12 17.87 47.76 18.28 47.76 19.09ZM55.28 17.87L55.28 19.78L57.59 19.78L57.59 17.87L58.64 17.87L58.64 22.64L57.59 22.64L57.59 20.58L55.28 20.58L55.28 22.64L54.24 22.64L54.24 17.87L55.28 17.87ZM61.18 17.87L61.18 19.78L63.49 19.78L63.49 17.87L64.53 17.87L64.53 22.64L63.49 22.64L63.49 20.58L61.18 20.58L61.18 22.64L60.13 22.64L60.13 17.87L61.18 17.87ZM71.81 22.64L70.64 22.64L72.01 20.68C71.68 20.59 71.42 20.43 71.23 20.19C71.04 19.95 70.94 19.66 70.94 19.31Q70.94 18.9 71.12 18.6Q71.24 18.4 71.44 18.25C71.77 18 72.22 17.87 72.8 17.87L75.04 17.87L75.04 22.64L73.99 22.64L73.99 20.8L73 20.8L71.81 22.64ZM82.06 17.87L82.06 18.66L79.93 18.66L79.93 22.64L78.89 22.64L78.89 17.87L82.06 17.87ZM92.32 22.64L91.27 22.64L91.27 18.66L89.92 18.66C89.83 19.68 89.72 20.48 89.58 21.06C89.44 21.63 89.25 22.05 89.03 22.32C88.8 22.58 88.51 22.71 88.15 22.71C87.92 22.71 87.73 22.68 87.58 22.62L87.58 21.83C87.68 21.87 87.79 21.89 87.9 21.89C88.21 21.89 88.44 21.56 88.61 20.9C88.79 20.24 88.92 19.23 89.02 17.87L92.32 17.87L92.32 22.64ZM110.47 22.64L109.3 22.64L110.66 20.68C110.33 20.59 110.07 20.43 109.88 20.19C109.69 19.95 109.6 19.66 109.6 19.31C109.6 18.86 109.76 18.51 110.1 18.25C110.43 18 110.88 17.87 111.46 17.87L113.69 17.87L113.69 22.64L112.65 22.64L112.65 20.8L111.66 20.8L110.47 22.64ZM31.08 18.55C30.75 18.55 30.48 18.65 30.28 18.86Q29.98 19.16 29.92 19.75L32.15 19.75C32.15 19.35 32.05 19.06 31.86 18.86C31.67 18.65 31.41 18.55 31.08 18.55ZM50.95 18.55C50.62 18.55 50.35 18.65 50.15 18.86C49.95 19.06 49.84 19.36 49.8 19.75L52.03 19.75C52.02 19.35 51.92 19.06 51.73 18.86Q51.67 18.78 51.59 18.73Q51.33 18.55 50.95 18.55ZM95.77 18.55C95.44 18.55 95.17 18.65 94.97 18.86C94.77 19.06 94.66 19.36 94.62 19.75L96.85 19.75Q96.84 19.16 96.55 18.86C96.36 18.65 96.1 18.55 95.77 18.55ZM106.68 18.55C106.35 18.55 106.08 18.65 105.88 18.86Q105.58 19.16 105.52 19.75L107.75 19.75C107.75 19.35 107.65 19.06 107.46 18.86C107.27 18.65 107.01 18.55 106.68 18.55ZM17.03 20.24Q17.03 21.29 17.53 21.67Q17.82 21.89 18.28 21.89Q18.73 21.89 19.02 21.68Q19.53 21.3 19.53 20.24C19.53 19.15 19.11 18.61 18.28 18.61C17.84 18.61 17.52 18.75 17.32 19.03Q17.03 19.45 17.03 20.24ZM101.3 18.61C100.88 18.61 100.58 18.73 100.39 18.96C100.2 19.2 100.1 19.58 100.1 20.09L100.1 20.24C100.1 20.82 100.2 21.25 100.39 21.51C100.58 21.77 100.88 21.89 101.31 21.89C101.67 21.89 101.95 21.75 102.15 21.46C102.34 21.18 102.44 20.77 102.44 20.24C102.44 19.7 102.34 19.3 102.15 19.02C101.96 18.75 101.67 18.61 101.3 18.61ZM46.72 19.17C46.72 18.99 46.64 18.85 46.49 18.77C46.34 18.68 46.11 18.64 45.81 18.64L44.54 18.64L44.54 19.78L45.65 19.78C46 19.78 46.27 19.74 46.45 19.65C46.63 19.56 46.72 19.4 46.72 19.17ZM71.96 19.32Q71.96 19.53 72.06 19.68Q72.12 19.79 72.24 19.87C72.44 19.99 72.69 20.05 73.02 20.05L73.99 20.05L73.99 18.64L72.85 18.64C72.57 18.64 72.35 18.7 72.19 18.81C72.04 18.93 71.96 19.1 71.96 19.32ZM110.62 19.32C110.62 19.56 110.71 19.75 110.9 19.87C111.09 19.99 111.35 20.05 111.67 20.05L112.65 20.05L112.65 18.64L111.51 18.64C111.22 18.64 111 18.7 110.85 18.81C110.69 18.93 110.62 19.1 110.62 19.32ZM13.59 21.85L13.59 18.64L12.53 18.64C12.48 19.24 12.36 19.82 12.18 20.39Q11.91 21.26 11.53 21.85L13.59 21.85ZM67.55 21.95C67.93 21.95 68.23 21.84 68.46 21.64Q68.54 21.56 68.61 21.48Q68.81 21.2 68.81 20.77L68.81 20.36L68.18 20.39C67.68 20.4 67.33 20.48 67.1 20.63C66.88 20.77 66.77 20.99 66.77 21.28C66.77 21.49 66.83 21.66 66.96 21.77C67.09 21.89 67.29 21.95 67.55 21.95ZM84.53 21.95C84.91 21.95 85.21 21.84 85.44 21.64Q85.52 21.56 85.59 21.48Q85.79 21.2 85.79 20.77L85.79 20.36L85.16 20.39C84.66 20.4 84.31 20.48 84.08 20.63C83.86 20.77 83.75 20.99 83.75 21.28C83.75 21.49 83.81 21.66 83.94 21.77C84.07 21.89 84.27 21.95 84.53 21.95ZM46.85 21.17C46.85 20.94 46.76 20.78 46.57 20.68Q46.3 20.54 45.75 20.54L44.54 20.54L44.54 21.89L45.77 21.89C46.49 21.89 46.85 21.65 46.85 21.17Z" fill="#FFFFFF" fill-opacity="1.000000" fill-rule="evenodd"/>
	<path id="Blanchard" d="M-6.11e-5 13.05L7.68 13.05C10.71 13.05 12.26 11.72 12.26 9.18L12.26 9.14C12.26 7.26 11.27 6.11 9.37 5.79L9.37 5.61C10.97 5.31 11.8 4.31 11.8 2.67L11.8 2.62C11.8 0.39 10.35 -0.77 7.51 -0.77L-6.11e-5 -0.77L-6.11e-5 13.05ZM15.12 -0.77L15.12 13.05L18.11 13.05L18.11 -0.77L15.12 -0.77ZM64.26 13.05L67.25 13.05L67.25 8.23C67.25 5.9 68.38 4.47 70.28 4.47C71.68 4.47 72.38 5.16 72.38 6.51L72.38 13.05L75.37 13.05L75.37 5.82C75.37 3.64 74.04 2.5 71.58 2.5C69.32 2.5 67.8 3.45 66.91 5.41L66.69 5.33C67.09 4.23 67.24 3.41 67.25 2.43L67.25 -0.77L64.26 -0.77L64.26 13.05ZM106.91 13.24C109.13 13.24 110.57 12.25 111.3 10.46L111.52 10.53C111.17 11.62 110.99 12.48 110.98 13.05L114 13.05L114 -0.77L111.01 -0.77L111.01 2.05C111.01 3.13 111.16 4.01 111.53 5.2L111.32 5.28C110.6 3.51 109.14 2.48 106.91 2.48C103.83 2.48 102.2 4.29 102.2 7.74L102.2 7.99C102.2 11.43 103.83 13.24 106.91 13.24ZM3.03 4.89L3.03 1.19L6.61 1.19C8.06 1.19 8.78 1.8 8.78 3L8.78 3.04C8.78 4.27 8.06 4.89 6.61 4.89L3.03 4.89ZM92.69 13.05L95.68 13.05L95.68 8.72C95.68 6.01 96.55 5.02 98.83 4.86L100.3 4.75L99.95 2.36C97.54 2.54 96.42 3.27 95.31 5.42L95.11 5.33C95.56 4.05 95.69 3.48 95.69 2.84C95.69 2.79 95.69 2.74 95.69 2.69L92.69 2.69L92.69 13.05ZM55.48 13.3C59.01 13.3 60.98 11.93 61.28 9.3L58.26 8.97C58.14 10.63 57.19 11.47 55.5 11.47C53.59 11.47 52.61 10.33 52.61 8.07L52.61 7.58C52.61 5.37 53.6 4.26 55.46 4.26C57.18 4.26 58.07 5.17 58.21 7.01L61.19 6.68C60.95 3.89 59.05 2.44 55.47 2.44C51.59 2.44 49.55 4.27 49.55 7.76L49.55 7.89C49.55 11.44 51.57 13.3 55.48 13.3ZM24.36 13.31C26.77 13.31 28.53 12.27 29.18 10.51L29.38 10.56C29.3 10.97 29.25 11.32 29.25 11.63C29.25 12.79 29.9 13.31 31.77 13.31C32.06 13.31 32.36 13.28 32.61 13.24L32.96 11.53L32.45 11.52C31.88 11.51 31.72 11.38 31.72 10.68L31.72 5.93C31.72 3.59 30.09 2.46 26.63 2.46C23.09 2.46 21.24 3.75 21.24 5.99C21.24 6.08 21.24 6.17 21.25 6.26L24.2 6.5C24.19 6.39 24.18 6.3 24.18 6.2C24.18 4.82 25.02 4.19 26.57 4.19C28.05 4.19 28.75 4.71 28.75 5.9L28.75 6.49L25.83 7C22.91 7.52 20.98 8.41 20.98 10.58L20.98 10.61C20.98 12.33 22.19 13.31 24.36 13.31ZM81.58 13.31C83.99 13.31 85.75 12.27 86.39 10.51L86.6 10.56C86.52 10.97 86.47 11.32 86.47 11.63C86.47 12.79 87.12 13.31 88.98 13.31C89.28 13.31 89.58 13.28 89.83 13.24L90.17 11.53L89.66 11.52C89.1 11.51 88.93 11.38 88.93 10.68L88.93 5.93C88.93 3.59 87.31 2.46 83.85 2.46C80.31 2.46 78.45 3.75 78.45 5.99C78.45 6.08 78.46 6.17 78.46 6.26L81.41 6.5C81.4 6.39 81.4 6.3 81.4 6.2C81.4 4.82 82.24 4.19 83.78 4.19C85.26 4.19 85.96 4.71 85.96 5.9L85.96 6.49L83.04 7C80.13 7.52 78.2 8.41 78.2 10.58L78.2 10.61C78.2 12.33 79.41 13.31 81.58 13.31ZM35.47 13.05L38.46 13.05L38.46 8.23C38.46 5.9 39.6 4.46 41.49 4.46C42.9 4.46 43.6 5.16 43.6 6.51L43.6 13.05L46.59 13.05L46.59 5.82C46.59 3.64 45.26 2.5 42.8 2.5C40.56 2.5 39.03 3.45 38.12 5.42L37.92 5.33C38.33 4.16 38.47 3.46 38.47 2.69L35.47 2.69L35.47 13.05ZM108.04 11.46C106.19 11.46 105.22 10.33 105.22 8.09L105.22 7.63C105.22 5.38 106.19 4.24 108.04 4.24C109.97 4.24 111.01 5.44 111.01 7.68L111.01 8.04C111.01 10.27 109.97 11.46 108.04 11.46ZM3.03 11.09L3.03 6.68L6.7 6.68C8.3 6.68 9.09 7.41 9.09 8.85L9.09 8.88C9.09 10.35 8.3 11.09 6.7 11.09L3.03 11.09ZM25.55 11.39C24.55 11.39 24 11.05 24 10.34L24 10.32C24 9.3 24.96 8.88 26.85 8.53L28.75 8.17L28.75 8.66C28.75 10.25 27.26 11.39 25.55 11.39ZM82.77 11.39C81.76 11.39 81.22 11.05 81.22 10.34L81.22 10.32C81.22 9.3 82.17 8.88 84.06 8.53L85.96 8.17L85.96 8.66C85.96 10.25 84.47 11.39 82.77 11.39Z" fill="#FFFFFF" fill-opacity="1.000000" fill-rule="evenodd"/>
</svg>
